<svg width="920" height="575" viewBox="0 0 920 575" fill="none" xmlns="http://www.w3.org/2000/svg">
<path d="M875.955 573.673C823.389 573.673 57.6198 573.86 57.1763 572.489L57.1012 572.315C57.1012 572.315 57.0261 572.144 57.0261 572.062C56.7327 571.377 -60.96 378.858 122.009 244.836C193.6 192.395 117.529 157.778 174.46 99.4012C239.886 32.3168 311.286 106.529 384.038 76.1083C396.894 70.738 409.79 62.0957 422.704 48.8337C452.651 18.1063 493.74 3.88905 536.16 0.698942C617.451 -5.37761 708.93 28.7958 756.14 78.7457C765.646 88.8039 808.868 140.845 774.797 212.379C753.285 257.542 843.403 300.675 875.423 352.249C956.841 483.371 876.692 571.963 875.955 573.673Z" fill="#EBF3FA"/>
<g opacity="0.5">
<g opacity="0.5">
<path opacity="0.5" d="M296.731 213.112C296.731 213.112 290.767 163.162 265.171 133.353C261.769 129.392 255.26 131.913 255.369 137.133C255.372 137.218 255.372 137.307 255.376 137.396C255.707 146.308 284.366 183.893 296.731 213.112Z" fill="#AEC3FF"/>
</g>
<g opacity="0.5">
<path opacity="0.5" d="M299.839 227.411C299.839 227.411 274.332 164.977 230.769 137.365C228.111 135.68 224.515 136.29 222.734 138.883C221.574 140.572 221.052 143.21 222.355 147.328C225.825 158.311 274.414 195.275 299.839 227.411Z" fill="#AEC3FF"/>
</g>
</g>
<path d="M617.543 211.536C617.543 211.536 594.704 197.476 606.352 180.157C606.352 180.157 615.534 169.607 625.002 167.188C625.002 167.188 618.918 193.48 623.879 194.309C628.84 195.138 628.546 164.524 628.546 164.524C628.546 164.524 653.665 153.698 663.29 155.032C663.29 155.032 646.943 180.273 651.959 179.857C656.971 179.44 675.2 153.964 675.2 153.964C675.2 153.964 700.646 150.334 704.079 165.465C707.511 180.597 700.657 187.806 696.876 188.588C693.096 189.369 669.107 188.062 669.602 191.205C670.096 194.347 686.101 200.007 695.256 197.575C695.256 197.575 684.262 221.789 671.219 220.001C658.179 218.213 654.46 209.939 646.38 208.98C638.301 208.022 632.289 209.96 636.251 212.307C640.212 214.658 653.989 213.757 660.308 219.595C666.623 225.433 671.782 229.08 659.52 231.069C647.257 233.058 625.503 230.598 621.525 221.065C617.543 211.536 617.543 211.536 617.543 211.536Z" fill="#82B378"/>
<path d="M692.348 169.665C692.348 169.665 626.008 188.154 617.543 211.536C617.543 211.536 617.417 222.147 610.368 234.034L610.173 238.712C610.173 238.712 617.69 223.095 621.521 221.069C621.521 221.069 607.72 199.888 692.348 169.665Z" fill="#82B378"/>
<path d="M610.368 234.037C610.368 234.037 599.637 248.951 604.622 267.849L607.249 267.259C607.249 267.259 605.578 246.6 611.289 236.48C616.997 226.361 610.368 234.037 610.368 234.037Z" fill="#82B378"/>
<path d="M525.132 210.976C525.132 210.976 486.78 214.368 485.34 184.442C485.34 184.442 486.865 164.425 495.691 153.52C495.691 153.52 511.229 189.011 517.654 185.711C524.078 182.412 497.489 147.413 497.489 147.413C497.489 147.413 517.128 113.41 529.353 106.696C529.353 106.696 532.175 149.774 537.589 144.997C543.004 140.217 542.151 95.2557 542.151 95.2557C542.151 95.2557 568.334 69.2571 585.263 83.7372C602.19 98.2172 600.48 112.397 596.796 116.536C593.114 120.674 564.369 139.743 567.634 142.937C570.899 146.13 594.179 138.924 602.637 128.276C602.637 128.276 610.74 165.585 594.189 174.708C577.638 183.831 566.266 177.492 556.14 183.316C546.017 189.14 540.752 196.527 547.33 195.834C553.908 195.142 568.999 182.293 581.275 183.599C593.551 184.903 602.62 184.681 590.207 197.489C577.795 210.294 550.633 226.115 537.883 218.551C525.132 210.987 525.132 210.976 525.132 210.976Z" fill="#A8D29F"/>
<path d="M575.362 98.6232C575.362 98.6232 514.829 176.796 525.132 210.973C525.132 210.973 534.085 223.3 536.16 243.031L539.947 248.582C539.947 248.582 535.211 224.16 537.886 218.54C537.886 218.54 503.836 205.988 575.362 98.6232Z" fill="#A8D29F"/>
<path d="M536.16 243.034C536.16 243.034 536.593 269.405 558.535 286.894L561.053 283.963C561.053 283.963 541.414 261.609 539.312 245.061C537.211 228.513 536.16 243.034 536.16 243.034Z" fill="#A8D29F"/>
<path d="M164.739 505.814C164.739 505.814 153.995 493.282 164.077 485.322C164.077 485.322 171.44 480.866 177.445 481.228C177.445 481.228 168.939 495.493 171.689 496.912C174.442 498.332 180.021 480.334 180.021 480.334C180.021 480.334 196.777 478.71 202.167 481.3C202.167 481.3 187.844 493.023 190.86 493.719C193.877 494.415 209.349 482.913 209.349 482.913C209.349 482.913 224.945 485.568 224.113 495.08C223.28 504.593 217.906 507.53 215.545 507.278C213.184 507.025 199.37 501.75 199.069 503.685C198.769 505.619 207.084 511.945 212.908 512.239C212.908 512.239 201.915 524.364 194.607 520.864C187.298 517.363 186.677 511.819 182.123 509.738C177.568 507.656 173.678 507.663 175.562 509.785C177.442 511.908 185.685 513.968 188.291 518.578C190.895 523.184 193.232 526.292 185.674 525.156C178.117 524.02 165.827 518.486 165.285 512.153C164.739 505.814 164.739 505.814 164.739 505.814Z" fill="#BBD0FF"/>
<path d="M216.446 495.333C216.446 495.333 174.091 493.702 164.736 505.814C164.736 505.814 162.668 512.01 156.302 517.65L155.309 520.355C155.309 520.355 162.648 512.617 165.275 512.15C165.278 512.146 161.17 497.141 216.446 495.333Z" fill="#BBD0FF"/>
<path d="M156.305 517.65C156.305 517.65 147.212 524.374 146.581 536.388L148.232 536.534C148.232 536.534 151.136 524.112 156.383 519.253C161.631 514.398 156.305 517.65 156.305 517.65Z" fill="#BBD0FF"/>
<path d="M127.178 490.051C127.178 490.051 144.264 480.481 136.291 467.495C136.291 467.495 129.911 459.522 123.077 457.471C123.077 457.471 126.721 476.837 123.077 477.294C119.429 477.751 120.569 455.42 120.569 455.42C120.569 455.42 102.568 446.761 95.5053 447.447C95.5053 447.447 106.669 466.359 103.025 465.902C99.3812 465.448 86.8494 446.307 86.8494 446.307C86.8494 446.307 68.3945 442.889 65.433 453.827C62.4715 464.762 67.2549 470.231 69.9913 470.917C72.7242 471.6 90.2681 471.371 89.8143 473.65C89.3571 475.929 77.511 479.573 70.9022 477.523C70.9022 477.523 78.1934 495.524 87.7637 494.609C97.3341 493.698 100.296 487.775 106.219 487.318C112.142 486.861 116.471 488.458 113.51 490.051C110.548 491.644 100.524 490.573 95.7373 494.64C90.9538 498.707 87.078 501.215 95.9659 503.037C104.85 504.859 120.801 503.719 123.991 496.885C127.178 490.051 127.178 490.051 127.178 490.051Z" fill="#AEC3FF"/>
<path d="M73.8638 457.242C73.8638 457.242 121.712 472.736 127.181 490.051C127.181 490.051 126.953 497.799 131.739 506.684V510.102C131.739 510.102 126.727 498.482 123.991 496.888C123.988 496.888 134.698 481.849 73.8638 457.242Z" fill="#AEC3FF"/>
<path d="M131.736 506.684C131.736 506.684 139.116 517.889 134.909 531.529L133.012 531.021C133.012 531.021 134.854 515.998 130.996 508.441C127.13 500.884 131.736 506.684 131.736 506.684Z" fill="#AEC3FF"/>
<path d="M154.364 476.854C154.364 476.854 131.838 464.24 142.35 447.119C142.35 447.119 150.761 436.607 159.771 433.905C159.771 433.905 154.968 459.433 159.771 460.033C164.575 460.634 163.074 431.199 163.074 431.199C163.074 431.199 186.8 419.787 196.111 420.687C196.111 420.687 181.396 445.615 186.2 445.014C191.004 444.414 207.524 419.186 207.524 419.186C207.524 419.186 231.851 414.679 235.757 429.098C239.661 443.513 233.355 450.722 229.749 451.623C226.146 452.524 203.017 452.223 203.618 455.226C204.218 458.228 219.838 463.036 228.545 460.33C228.545 460.33 218.933 484.056 206.32 482.855C193.706 481.654 189.799 473.845 181.993 473.244C174.183 472.644 168.479 474.745 172.382 476.847C176.285 478.949 189.503 477.536 195.808 482.896C202.116 488.26 207.22 491.562 195.507 493.964C183.794 496.366 162.77 494.865 158.564 485.854C154.364 476.854 154.364 476.854 154.364 476.854Z" fill="#D2E0FF"/>
<path d="M224.645 433.605C224.645 433.605 161.573 454.028 154.364 476.854C154.364 476.854 154.664 487.065 148.355 498.778V503.282C148.355 503.282 154.964 487.966 158.567 485.861C158.571 485.864 144.452 466.041 224.645 433.605Z" fill="#D2E0FF"/>
<path d="M148.359 498.778C148.359 498.778 138.631 513.549 144.176 531.529L146.677 530.857C146.677 530.857 144.247 511.054 149.338 501.092C154.428 491.132 148.359 498.778 148.359 498.778Z" fill="#D2E0FF"/>
<path d="M153.606 570.52C177.977 570.52 197.732 550.765 197.732 526.394H109.48C109.48 550.765 129.235 570.52 153.606 570.52Z" fill="#C0D4FF"/>
<path d="M198.339 572.765H108.873C108.873 569.759 111.309 567.32 114.318 567.32H192.897C195.903 567.323 198.339 569.759 198.339 572.765Z" fill="#C0D4FF"/>
<path d="M198.735 526.394H108.03V527.749H198.735V526.394Z" fill="#86A2E2"/>
<path d="M454.585 323.329L434.84 558.104C434.84 558.104 432.773 572.335 443.356 572.362C460.76 572.403 529.987 572.362 529.987 572.362C529.987 572.362 516.889 569.401 517.046 562.734C517.234 554.876 540.124 321.108 540.124 321.108L454.585 323.329Z" fill="#798EE8"/>
<path d="M536.508 568.094C533.086 568.105 466.063 568.217 449.112 567.999C441.726 567.907 440.429 561.431 440.368 557.238C440.337 555.228 440.593 553.744 440.593 553.744L441.105 547.643L442.415 532.092L443.572 518.353L445.056 500.696L446.308 485.793L460.337 318.969L545.88 316.748C545.88 316.748 536.238 414.58 529.421 485.793C528.66 493.726 527.937 501.334 527.265 508.438C527.047 510.707 526.838 512.921 526.637 515.081C526.006 521.819 525.426 528.005 524.924 533.467C524.658 536.347 524.416 539.022 524.194 541.471C523.324 551.076 522.812 557.207 522.806 558.374C522.802 559.053 522.86 559.687 522.973 560.274C524.375 567.757 535.225 568.094 536.508 568.094Z" fill="#AEC3FF"/>
<path d="M246.846 195.473L294.94 388.664L301.525 415.119L323.927 505.104H740.094L657.53 195.473H246.846Z" fill="#AEC3FF"/>
<path d="M246.842 195.473L240.179 197.694L315.066 511.826L323.927 505.104L246.842 195.473Z" fill="#798EE8"/>
<path d="M315.067 511.825H728.671L740.094 505.104H323.927L315.067 511.825Z" fill="#849DEF"/>
<path d="M460.313 572.349H549.865V568.094H460.313V572.349Z" fill="#AEC3FF"/>
<path d="M527.098 511.822L526.637 515.077L442.418 532.092L443.571 518.349L444.124 511.822H527.098Z" fill="#8C9DF4"/>
<g opacity="0.5">
<path opacity="0.5" d="M536.508 568.094C533.085 568.104 466.063 568.217 449.112 567.999C441.726 567.906 440.429 561.431 440.368 557.237L524.191 541.468C523.321 551.072 522.809 557.203 522.802 558.37C522.799 559.049 522.857 559.684 522.969 560.271C524.375 567.756 535.225 568.094 536.508 568.094Z" fill="#8C9DF4"/>
</g>
<path d="M246.843 195.473H657.53L724.164 444.318H308.795L246.843 195.473Z" fill="#8C9DF4"/>
<path d="M704.795 433.533H320.266L306.527 378.796L301.211 357.615L299.044 348.98L284.919 292.725L284.189 289.794L276.724 260.06L273.38 246.753L270.535 235.405L268.208 226.149L263.854 208.803H642.839L647.622 226.149L650.171 235.405L653.3 246.753L656.967 260.06L681.134 347.711V347.714L683.177 355.142L684.133 358.588L700.813 419.101L704.795 433.533Z" fill="#505ABA"/>
<path d="M552.393 423.618H354.545L343.675 370.338L339.468 353.583L337.756 346.752L326.582 302.251L326.005 299.934L320.099 276.409L317.455 265.887L315.203 256.907L313.364 249.585L309.918 235.863H503.508L552.393 423.618Z" fill="#5E6ECC"/>
<path d="M464.824 444.318L324.067 505.831L308.795 444.318H464.824Z" fill="#8C9DF4"/>
<path d="M785.373 308.805C785.394 308.252 785.824 302.282 794.916 301.968C794.916 301.968 790.443 302.5 789.672 304.469C789.672 304.469 792.716 302.039 795.196 302.821C797.676 303.602 799.133 307.945 799.147 309.375C799.161 310.805 797.782 315.411 796.209 315.803C795.612 315.95 794.927 315.912 794.302 315.806C794.722 316.461 795.131 317.181 795.524 317.987C799.15 325.435 795.411 332.716 792.337 331.91C790.365 331.395 789.809 334.756 789.809 334.756L770.668 319.259C770.672 319.259 777.7 304.711 785.373 308.805Z" fill="#2C3A64"/>
<path d="M733.206 401.943C734.806 403.359 739.05 398.497 739.637 397.852C739.668 397.79 739.698 397.76 739.698 397.76L738.405 394.16C738.405 394.16 732.837 393.945 731.913 394.866C730.991 395.788 731.452 400.435 733.206 401.943Z" fill="#FFB27D"/>
<path d="M778.707 528.247L782.773 529.762C782.773 529.762 800.433 505.268 802.607 483.722C802.996 479.873 802.197 471.719 802.501 469.975C802.641 469.163 802.811 468.184 803.009 467.062C803.583 463.773 804.374 459.272 805.275 454.148C807.353 442.353 810.045 427.279 812.136 416.194L811.041 415.843L799.188 412.018L796.738 404.239L787.912 401.915C787.912 401.915 785.94 405.771 784.179 423.994C783.855 426.382 783.558 429.019 783.336 431.878C782.651 440.603 782.6 451.422 784.176 463.793C784.582 466.959 786.26 479.406 786.066 483.261C785.175 500.87 778.707 528.247 778.707 528.247Z" fill="#2B478B"/>
<path d="M783.333 431.872L802.498 469.975C802.637 469.163 802.808 468.184 803.006 467.062C803.579 463.773 804.371 459.272 805.271 454.148C807.349 442.353 810.041 427.279 812.133 416.194L811.038 415.843L799.185 412.018L796.735 404.239L787.908 401.915C787.908 401.915 785.936 405.771 784.176 423.994C783.852 426.378 783.558 429.016 783.333 431.872Z" fill="#233862"/>
<path d="M791.767 406.801L792.211 402.997C799.645 404.972 819.506 397.48 819.506 397.48C819.506 397.48 826.708 403.809 825.76 418.982C825.299 426.389 824.456 457.857 823.576 467.171C823.259 470.545 825.449 479.232 826.329 481.576C834.972 504.603 824.999 532.959 824.999 532.959L822.413 531.915C822.413 531.915 806.042 472.558 804.354 466.27C801.163 454.383 798.594 438.917 796.882 426.979C796.643 426.993 791.767 406.801 791.767 406.801Z" fill="#2B478B"/>
<path d="M786.127 362.658C798.908 363.358 796.1 344.309 795.319 344.405C793.756 343.589 790.948 339.621 789.324 332.985L788.772 333.241L779.549 337.578C779.549 337.578 780.528 340.577 781.252 343.45C781.815 345.698 782.221 347.868 781.883 348.475C781.156 348.772 780.719 348.956 780.719 348.956C780.719 348.956 780.719 348.96 780.716 348.967C780.627 349.202 782.719 362.471 786.127 362.658Z" fill="#FFB27D"/>
<path d="M779.549 337.577C779.549 337.577 780.528 340.576 781.252 343.449C786.642 341.945 788.277 336.281 788.772 333.241L779.549 337.577Z" fill="#ED985F"/>
<path d="M778.416 340.754C778.416 340.754 791.313 337.769 789.331 329.768C787.349 321.767 787.68 315.991 779.362 317.56C771.043 319.126 770.208 322.576 770.218 325.407C770.228 328.236 775.011 341.324 778.416 340.754Z" fill="#FFB27D"/>
<path d="M769.491 320.863C770.876 317.963 772.507 318.116 773.531 318.631C779.59 313.026 785.534 317.604 785.534 317.604C787.82 323.132 792.777 325.387 792.777 325.387C792.777 325.387 790.795 327.417 785.056 327.369C783.302 327.356 781.538 326.55 779.935 325.441C783.029 328.56 786.659 330.457 786.659 330.457C779.471 329.082 774.653 320.76 774.158 319.877C773.551 320.777 772.384 322.691 772.285 324.305C772.152 326.503 772.91 330.767 771.651 330.928C771.647 330.931 767.413 325.213 769.491 320.863Z" fill="#2C3A64"/>
<path d="M809.953 535.074H830.431C830.431 535.074 830.922 531.952 829.851 529.584C828.827 527.312 827.22 526.278 827.606 523.532C826.306 524.873 824.183 526.37 821.222 525.975C820.86 526.561 818.881 529.711 817.67 530.581C816.329 531.539 810.365 531.198 809.953 535.074Z" fill="#233862"/>
<path d="M765.984 535.074H786.462C786.462 535.074 787.226 531.809 785.882 529.584C784.691 527.619 785.148 526.497 786.028 524.869C785.1 525.248 783.899 525.596 782.579 525.517C781.559 525.459 780.481 524.995 779.532 524.446C778.652 525.449 774.878 529.728 773.698 530.574C772.364 531.539 766.396 531.198 765.984 535.074Z" fill="#233862"/>
<path d="M819.885 373.29C818.782 369.718 817.646 366.292 816.493 363.129C813.873 355.94 812.204 352.187 810.792 349.28C808.103 343.75 796.08 344.098 796.08 344.098C793.763 352.443 787.4 357.643 787.4 357.643C784.009 355.65 781.48 348.646 781.48 348.646L774.056 352.597C774.029 352.624 771.757 353.965 769.754 359.724C766.775 368.295 761.941 380.462 758.587 384.184C757.805 385.051 755.513 386.364 752.739 387.76V387.763C752.681 387.852 752.633 387.899 752.602 387.899C752.78 388.309 753.592 390.24 754.895 392.202C755.953 393.795 757.345 395.406 758.993 396.238C760.259 395.627 762.538 394.73 763.503 394.136C766.997 392.001 772.203 388.92 776.274 382.43L777.41 397.695L779.464 425.307C782.623 426.29 785.629 427.058 788.482 427.648C788.669 425.335 789.416 422.564 789.416 422.564C789.386 424.018 791.081 426.795 792.088 428.306C818.312 432.506 830.605 421.07 830.605 421.07C829.591 410.94 825.173 390.458 819.885 373.29Z" fill="#8C9DF4"/>
<path d="M793.429 342.555C793.429 342.555 795.609 342.702 796.08 344.098C796.08 344.098 793.234 355.558 787.403 357.643L793.429 342.555Z" fill="#707FE5"/>
<path d="M787.403 357.643C787.403 357.643 781.835 347.591 781.856 346.234C781.856 346.234 779.737 348.11 779.877 349.502C779.877 349.502 784.568 357.015 787.403 357.643Z" fill="#707FE5"/>
<path d="M802.334 353.566C802.177 354.108 790.808 381.274 780.614 391.291C776.151 395.675 790.372 394.409 790.508 393.594C790.645 392.778 802.334 353.566 802.334 353.566Z" fill="#707FE5"/>
<path d="M777.772 398.551L778.744 413.877C809.836 406.655 807.226 357.135 807.226 357.135L791.614 389.373L777.911 398.33C777.911 398.33 777.86 398.408 777.772 398.551Z" fill="#707FE5"/>
<path d="M752.565 387.852C752.572 387.887 752.586 387.901 752.606 387.901C752.596 387.876 752.586 387.856 752.582 387.842C752.558 387.793 752.551 387.793 752.565 387.852Z" fill="#AEC3FF"/>
<path d="M767.945 366.749L774.138 394.345C775.124 398.739 771.797 402.301 766.703 402.301H618.048C612.957 402.301 608.031 398.739 607.045 394.345L600.852 366.749C600.815 366.579 600.78 366.415 600.763 366.244C600.125 362.082 603.39 358.793 608.287 358.793H756.942C761.838 358.793 766.581 362.085 767.809 366.244C767.863 366.415 767.908 366.579 767.945 366.749Z" fill="#F0A202"/>
<path d="M618.379 389.86H616.919L613.067 372.691H614.527L618.379 389.86Z" fill="#EBF3FA"/>
<path d="M628.423 379.776H617.98L616.888 374.917H627.335L628.423 379.776Z" fill="#EBF3FA"/>
<path d="M633.296 386.739H619.542L618.451 381.881H632.204L633.296 386.739Z" fill="#EBF3FA"/>
<path d="M651.795 389.858H650.338L646.486 372.689H647.943L651.795 389.858Z" fill="#EBF3FA"/>
<path d="M654.026 379.776H643.579L642.491 374.917H652.938L654.026 379.776Z" fill="#EBF3FA"/>
<path d="M657.244 386.739H643.49L642.398 381.881H656.152L657.244 386.739Z" fill="#EBF3FA"/>
<path d="M685.214 389.858H683.757L679.905 372.689H681.362L685.214 389.858Z" fill="#EBF3FA"/>
<path d="M679.625 379.776H669.178L668.087 374.917H678.534L679.625 379.776Z" fill="#EBF3FA"/>
<path d="M681.188 386.739H667.435L666.343 381.881H680.096L681.188 386.739Z" fill="#EBF3FA"/>
<path d="M706.596 374.078H689.428L689.1 372.621H706.269L706.596 374.078Z" fill="#EBF3FA"/>
<path d="M696.821 375.446L699.165 385.893H694.307L691.963 375.446H696.821Z" fill="#EBF3FA"/>
<path d="M703.785 375.446L706.873 389.199H702.014L698.927 375.446H703.785Z" fill="#EBF3FA"/>
<path d="M733.618 382H716.45L716.122 380.543H733.291L733.618 382Z" fill="#EBF3FA"/>
<path d="M722.202 376.05L724.546 386.497H719.688L717.344 376.05H722.202Z" fill="#EBF3FA"/>
<path d="M728.794 374.395L731.882 388.149H727.023L723.936 374.395H728.794Z" fill="#EBF3FA"/>
<path d="M760.654 389.988H743.486L743.158 388.531H760.33L760.654 389.988Z" fill="#EBF3FA"/>
<path d="M747.689 376.593L750.033 387.04H745.175L742.831 376.593H747.689Z" fill="#EBF3FA"/>
<path d="M753.912 373.286L756.997 387.04H752.138L749.054 373.286H753.912Z" fill="#EBF3FA"/>
<path d="M753.015 399.827C754.711 399.82 757.382 399.704 758.928 399.111C758.928 399.111 753.991 399.039 755.038 397.48C755.229 397.197 757.683 397.412 760.426 397.412C761.548 397.412 764.325 398.95 764.182 399.022C766.168 398.759 767.973 398.374 768.556 398.248C768.71 398.217 768.771 398.186 768.771 398.186L770.525 403.294C770.525 403.294 770.156 403.386 769.508 403.509C767.877 403.908 764.523 404.771 761.354 406.003C756.922 407.756 753.663 405.576 752.186 404.034C751.248 403.055 750.511 401.758 750.562 400.817C750.62 399.786 751.981 399.834 753.015 399.827Z" fill="#FFB27D"/>
<path d="M764.926 400.219L766.004 404.157C766.004 404.157 767.359 403.911 769.511 403.512C770.156 403.386 770.525 403.294 770.525 403.294C772.248 402.956 774.309 402.495 776.554 402H776.588C780.433 401.079 784.739 399.97 788.372 398.739C788.696 398.626 789.017 398.51 789.331 398.398C791.477 397.606 787.328 386.708 785.452 388.063C784.954 388.425 784.421 388.796 783.862 389.179C780.75 391.294 776.786 393.648 773.268 395.631C771.545 396.617 769.914 397.507 768.56 398.247C766.373 399.448 764.926 400.219 764.926 400.219Z" fill="#FFB27D"/>
<path d="M783.858 389.182C783.858 389.182 783.633 396.623 790.597 400.24C798.649 397.333 802.955 385.327 806.278 377.08C806.739 375.944 807.172 374.804 807.598 373.696C809.137 369.574 810.369 365.511 811.106 362.003C811.566 359.912 802.614 349.359 801.474 351.853C799.72 355.821 797.875 360.959 796.152 366.067C795.196 368.868 794.275 371.669 793.35 374.252C792.825 375.821 792.303 377.295 791.812 378.65C790.856 381.236 789.996 383.327 789.229 384.651C788.734 385.514 787.322 386.712 785.445 388.066C784.954 388.425 784.418 388.797 783.858 389.182Z" fill="#8C9DF4"/>
<path d="M647.622 226.149H268.208L263.854 208.803H642.839L647.622 226.149Z" fill="#3D4CA5"/>
<path d="M287.434 217.634C287.928 219.19 286.942 220.459 285.236 220.469C283.527 220.479 281.743 219.231 281.251 217.675C280.757 216.119 281.743 214.85 283.449 214.839C285.154 214.829 286.939 216.078 287.434 217.634Z" fill="#EBF3FA"/>
<path d="M300.228 217.544C300.723 219.1 299.737 220.369 298.031 220.38C296.325 220.39 294.537 219.141 294.046 217.585C293.551 216.029 294.537 214.76 296.243 214.75C297.949 214.74 299.733 215.988 300.228 217.544Z" fill="#EBF3FA"/>
<path d="M313.023 217.456C313.517 219.011 312.531 220.281 310.825 220.291C309.116 220.301 307.332 219.052 306.84 217.496C306.346 215.941 307.332 214.671 309.038 214.661C310.743 214.651 312.528 215.9 313.023 217.456Z" fill="#EBF3FA"/>
<path d="M317.455 265.887C317.455 265.887 362.116 266.058 394.498 290.883C426.884 315.711 422.217 337.987 449.088 343.569C493.122 352.719 465.786 305.721 522.969 310.61L552.39 423.618H354.542L339.465 353.583L317.455 265.887Z" fill="#F0A202"/>
<path d="M459.283 345.169C456.253 345.169 452.852 344.766 449.007 343.968C434.175 340.887 428.706 332.566 421.783 322.033C416.048 313.305 408.907 302.442 394.253 291.207C385.054 284.154 368.824 274.659 343.75 269.473C328.752 266.372 317.564 266.293 317.451 266.293L317.455 265.478C317.567 265.478 328.833 265.556 343.914 268.675C357.834 271.554 377.954 277.685 394.747 290.559C409.511 301.876 416.693 312.804 422.462 321.583C429.549 332.364 434.67 340.157 449.17 343.17C469.822 347.462 474.49 339.345 479.898 329.949C485.923 319.481 492.754 307.614 523.003 310.204L522.935 311.016C493.197 308.474 486.51 320.099 480.604 330.355C477.868 335.107 475.281 339.601 470.699 342.375C467.612 344.244 463.882 345.169 459.283 345.169Z" fill="white"/>
<path d="M327.885 307.178L339.24 352.419L354.545 423.618H552.393L542.417 386.651C542.417 386.651 513.129 370.328 473.412 384.556C433.694 398.783 389.725 385.651 386.897 353.651C383.703 317.567 350.55 300.183 327.885 307.178Z" fill="#CB8E12"/>
<path d="M377.872 328.584C366.501 311.003 345.528 302.162 328.004 307.57L327.766 306.792C345.63 301.282 366.992 310.262 378.558 328.144L377.872 328.584Z" fill="white"/>
<path d="M452.204 340.724L445.776 340.06L445.112 346.487L451.54 347.152L452.204 340.724Z" fill="white"/>
<path d="M398.441 332.522L398.223 333.571L506.538 356.062L506.755 355.013L398.441 332.522Z" fill="white"/>
<path d="M396.511 332.869C396.617 331.849 397.528 331.109 398.548 331.214C399.568 331.32 400.309 332.231 400.203 333.251C400.097 334.271 399.186 335.012 398.166 334.906C397.146 334.8 396.406 333.889 396.511 332.869Z" fill="white"/>
<path d="M504.825 355.364C504.931 354.344 505.842 353.603 506.862 353.709C507.882 353.815 508.622 354.726 508.517 355.746C508.411 356.766 507.5 357.506 506.48 357.401C505.46 357.295 504.719 356.384 504.825 355.364Z" fill="white"/>
<path d="M377.142 277.378L372.44 272.945L368.007 277.647L372.709 282.08L377.142 277.378Z" fill="white"/>
<path d="M353.887 257.966L353.131 258.725L389.864 295.313L390.62 294.554L353.887 257.966Z" fill="white"/>
<path d="M352.075 257.194C352.72 256.399 353.89 256.276 354.685 256.921C355.48 257.566 355.603 258.736 354.958 259.531C354.313 260.326 353.143 260.449 352.348 259.804C351.55 259.159 351.43 257.989 352.075 257.194Z" fill="white"/>
<path d="M388.808 293.783C389.452 292.988 390.623 292.865 391.418 293.51C392.213 294.155 392.335 295.325 391.691 296.12C391.046 296.915 389.875 297.038 389.08 296.393C388.282 295.748 388.159 294.578 388.808 293.783Z" fill="white"/>
<path d="M494.75 309.315L492.225 315.264L498.173 317.789L500.699 311.841L494.75 309.315Z" fill="white"/>
<path d="M502.956 298.195L489.193 328.264L490.167 328.709L503.93 298.641L502.956 298.195Z" fill="white"/>
<path d="M489.089 330.28C488.12 329.949 487.598 328.898 487.929 327.925C488.257 326.956 489.311 326.434 490.283 326.765C491.252 327.093 491.774 328.147 491.443 329.12C491.113 330.089 490.058 330.611 489.089 330.28Z" fill="white"/>
<path d="M502.846 300.211C501.877 299.88 501.355 298.829 501.686 297.856C502.013 296.887 503.068 296.365 504.04 296.696C505.009 297.024 505.531 298.078 505.2 299.051C504.869 300.02 503.815 300.538 502.846 300.211Z" fill="white"/>
<path d="M529.698 246.289L539.752 287.849C540.182 289.627 538.504 291.07 536.003 291.07H432.568C430.067 291.07 427.693 289.627 427.263 287.849L417.208 246.289C416.778 244.512 418.457 243.069 420.958 243.069H524.392C526.893 243.069 529.268 244.512 529.698 246.289Z" fill="#D2E0FF"/>
<path d="M443.425 270.599H432.418L429.753 259.592H440.763L443.425 270.599Z" fill="#2B478B"/>
<path d="M450.262 276.106H439.252L436.591 265.096H447.597L450.262 276.106Z" fill="#2B478B"/>
<path d="M469.126 270.599H458.116L455.455 259.592H466.462L469.126 270.599Z" fill="#2B478B"/>
<path d="M475.964 276.106H464.954L462.289 265.096H473.299L475.964 276.106Z" fill="#739AF0"/>
<path d="M476.547 276.577H464.599L461.709 264.628H473.657L476.547 276.577ZM465.309 275.635H475.377L472.941 265.566H462.872L465.309 275.635Z" fill="#1F3B72"/>
<path d="M494.828 270.599H483.818L481.153 259.592H492.163L494.828 270.599Z" fill="#739AF0"/>
<path d="M495.411 271.07H483.463L480.573 259.122H492.522L495.411 271.07ZM484.173 270.132H494.241L491.805 260.063H481.737L484.173 270.132Z" fill="#2B478B"/>
<path d="M501.662 276.106H490.655L487.991 265.096H499.001L501.662 276.106Z" fill="#739AF0"/>
<path d="M502.245 276.577H490.297L487.407 264.628H499.356L502.245 276.577ZM491.01 275.635H501.079L498.643 265.566H488.574L491.01 275.635Z" fill="#2B478B"/>
<path d="M495.408 271.049H488.925L487.37 264.625H493.852L495.408 271.049Z" fill="#2B478B"/>
<path d="M520.526 270.599H509.52L506.855 259.592H517.865L520.526 270.599Z" fill="#2B478B"/>
<path d="M527.364 276.106H516.354L513.692 265.096H524.699L527.364 276.106Z" fill="#2B478B"/>
<path d="M520.216 270.333H515.173L513.962 265.338H519.008L520.216 270.333Z" fill="#739AF0"/>
<path d="M243.53 377.527H205.412C200.328 377.527 195.296 373.406 194.17 368.322L165.49 238.834C164.364 233.751 167.571 229.629 172.655 229.629H210.772C215.856 229.629 220.888 233.751 222.014 238.834L250.695 368.322C251.82 373.406 248.613 377.527 243.53 377.527Z" fill="#3D4CA5"/>
<path d="M226.45 258.746H169.925V258.992H226.45V258.746Z" fill="#AEC3FF"/>
<path d="M233.209 289.259H176.684V289.504H233.209V289.259Z" fill="#AEC3FF"/>
<path d="M239.968 319.771H183.443V320.017H239.968V319.771Z" fill="#AEC3FF"/>
<path d="M204.505 249.749C204.576 249.094 201.656 237.869 201.656 237.869L212.018 246.262L206.927 246.081L204.505 249.749Z" fill="white"/>
<path d="M235.733 364.258H215.658L211.216 344.21H231.291L235.733 364.258ZM216.552 363.143H234.341L230.397 345.326H212.608L216.552 363.143Z" fill="#D2E0FF"/>
<path d="M221.308 352.859H202.375L198.182 333.927H217.115L221.308 352.859Z" fill="#F0A202"/>
<path d="M230.217 344.252L215.479 363.184L216.755 364.178L231.493 345.246L230.217 344.252Z" fill="#F0A202"/>
<path d="M179.018 249.749C179.089 249.094 176.169 237.869 176.169 237.869L186.531 246.262L181.44 246.081L179.018 249.749Z" fill="#D2E0FF"/>
<path d="M183.03 271.991H181.505L180.901 269.268H191.256L191.836 271.882H190.311L190.069 270.793H182.764L183.03 271.991Z" fill="#D2E0FF"/>
<path d="M188.919 278.641H187.394L185.487 270.029H187.012L188.919 278.641Z" fill="#D2E0FF"/>
<path d="M190.294 279.187H186.261L185.92 277.661H189.953L190.294 279.187Z" fill="#D2E0FF"/>
<path d="M210.943 280.139L209.564 279.146L216.838 267.699L218.217 268.692L210.943 280.139Z" fill="#D2E0FF"/>
<path d="M193.464 306.809C190.55 306.809 187.657 304.441 187.012 301.528C186.367 298.614 188.213 296.246 191.123 296.246C194.037 296.246 196.93 298.614 197.575 301.528C198.22 304.441 196.374 306.809 193.464 306.809ZM191.434 297.641C189.291 297.641 187.933 299.385 188.407 301.528C188.882 303.67 191.011 305.414 193.153 305.414C195.296 305.414 196.654 303.67 196.18 301.528C195.705 299.385 193.576 297.641 191.434 297.641Z" fill="#D2E0FF"/>
<path d="M203.515 311.395C203.334 311.395 203.133 311.323 202.966 311.183L195.944 305.27C195.617 304.994 195.524 304.55 195.743 304.284C195.961 304.018 196.405 304.025 196.732 304.301L203.754 310.214C204.081 310.491 204.174 310.934 203.955 311.2C203.849 311.33 203.689 311.395 203.515 311.395Z" fill="#D2E0FF"/>
<path d="M218.729 295.758L221.342 300.545H226.375L222.959 303.503L225.573 308.287L220.847 305.328L217.432 308.287L217.927 303.503L213.201 300.545H218.234L218.729 295.758Z" fill="#D2E0FF"/>
<path d="M704.672 253.874C704.672 253.874 704.809 261.414 703.679 261.274C702.547 261.134 701.011 254.952 701.001 255.044C700.987 255.136 701.513 261.544 700.09 261.865C698.667 262.185 697.224 255.082 697.224 255.082C697.224 255.082 698.179 261.179 697.176 261.339C696.177 261.503 694.6 255.59 694.187 255.573C693.775 255.556 695.515 260.643 694.297 260.902C693.079 261.162 690.356 254.007 691.281 253.096C692.202 252.185 693.638 253.161 693.638 253.161C693.638 253.161 695.409 251.847 696.77 252.591C696.77 252.591 699.96 251.953 700.919 253.369C700.919 253.366 702.908 251.653 704.672 253.874Z" fill="#ED917E"/>
<path d="M725.249 224.992L751.115 318.26C752.22 322.251 749.695 325.486 745.475 325.486H570.879C566.658 325.486 562.339 322.251 561.233 318.26L535.368 224.992C534.262 221.001 536.787 217.766 541.008 217.766H715.604C719.824 217.766 724.144 221.001 725.249 224.992Z" fill="#D2E0FF"/>
<path d="M589.467 267.071H566.917L560.663 244.522H583.213L589.467 267.071Z" fill="#B3C2FF"/>
<path d="M582.411 261.547H570.909L567.719 250.042H579.221L582.411 261.547Z" fill="#505ABA"/>
<path d="M582.477 243.969L566.185 266.52L567.62 267.557L583.912 245.006L582.477 243.969Z" fill="#F77D48"/>
<path d="M573.417 254.846H550.868L544.617 232.297H567.163L573.417 254.846Z" fill="#F77D48"/>
<path d="M586.229 293.677H568.102L563.072 275.55H581.2L586.229 293.677Z" fill="#F77D48"/>
<path d="M604.189 293.677H586.058L581.032 275.55H599.16L604.189 293.677Z" fill="#ED7D2B"/>
<path d="M622.316 293.677H604.189L599.16 275.55H617.287L622.316 293.677Z" fill="#FF8939"/>
<path d="M640.443 293.677H622.316L617.287 275.55H635.414L640.443 293.677Z" fill="#739AF0"/>
<path d="M658.571 293.677H640.443L635.414 275.55H653.542L658.571 293.677Z" fill="#8C9DF4"/>
<path d="M676.698 293.677H658.571L653.542 275.55H671.672L676.698 293.677Z" fill="#6B80DD"/>
<path d="M694.825 293.677H676.698L671.672 275.55H689.8L694.825 293.677Z" fill="#505ABA"/>
<path d="M712.953 293.677H694.825L689.8 275.55H707.927L712.953 293.677Z" fill="#2B478B"/>
<path d="M591.254 311.804H573.127L568.101 293.677H586.229L591.254 311.804Z" fill="#A4B5FF"/>
<path d="M609.215 311.804H591.087L586.058 293.677H604.189L609.215 311.804Z" fill="#8C9DF4"/>
<path d="M627.342 311.804H609.215L604.189 293.677H622.316L627.342 311.804Z" fill="#505ABA"/>
<path d="M645.469 311.804H627.342L622.316 293.677H640.443L645.469 311.804Z" fill="#2B478B"/>
<path d="M713.843 240.076H618.887C617.584 240.076 616.219 239.008 615.858 237.705C615.496 236.402 616.267 235.334 617.574 235.334H712.53C713.833 235.334 715.198 236.402 715.559 237.705C715.921 239.008 715.147 240.076 713.843 240.076Z" fill="#FF8939"/>
<path d="M717.166 252.055H622.21C620.904 252.055 619.542 250.988 619.181 249.684C618.819 248.381 619.59 247.313 620.897 247.313H715.853C717.156 247.313 718.521 248.381 718.883 249.684C719.241 250.988 718.47 252.055 717.166 252.055Z" fill="#739AF0"/>
<path d="M720.489 264.038H625.534C624.23 264.038 622.865 262.97 622.504 261.667C622.142 260.363 622.913 259.295 624.217 259.295H719.173C720.476 259.295 721.841 260.363 722.202 261.667C722.564 262.97 721.793 264.038 720.489 264.038Z" fill="#505ABA"/>
<path d="M602.742 234.215H605.601C607.103 234.215 608.208 235.02 608.549 236.258C608.843 237.313 608.386 237.944 607.556 238.2L609.962 240.629H608.635L606.42 238.394H605.028L605.649 240.629H604.523L602.742 234.215ZM606.4 237.395C607.205 237.395 607.604 236.972 607.417 236.303C607.226 235.617 606.628 235.238 605.793 235.238H604.151L604.748 237.391H606.4V237.395Z" fill="#505ABA"/>
<path d="M606.038 249.531C605.54 247.736 606.492 246.214 608.426 246.214C609.545 246.214 610.317 246.525 611.132 247.084L610.654 247.937C610.044 247.514 609.484 247.251 608.669 247.251C607.488 247.251 606.877 248.285 607.222 249.534C607.587 250.854 608.727 251.823 610.037 251.823C610.641 251.823 611.139 251.632 611.449 251.339L611.115 250.138H609.474L609.201 249.159H611.93L612.678 251.854C612.196 252.393 611.415 252.854 610.279 252.854C608.28 252.847 606.563 251.417 606.038 249.531Z" fill="#505ABA"/>
<path d="M609.624 259.026H612.5C613.234 259.026 613.865 259.227 614.336 259.596C614.697 259.879 614.943 260.227 615.066 260.677C615.281 261.448 614.953 261.858 614.547 262.107C615.37 262.363 616.011 262.793 616.257 263.683C616.574 264.829 615.8 265.444 614.37 265.444H611.402L609.624 259.026ZM613.022 261.731C613.746 261.731 614.152 261.448 613.984 260.841C613.845 260.336 613.357 260.026 612.63 260.026H611.009L611.48 261.731H613.022ZM614.104 264.444C614.875 264.444 615.257 264.14 615.093 263.547C614.943 263.008 614.425 262.687 613.534 262.687H611.746L612.234 264.447H614.104V264.444Z" fill="#505ABA"/>
<path d="M363.379 236.316C362.877 236.893 362.812 237.538 363.061 238.224C363.061 238.227 363.065 238.23 363.065 238.234C363.525 239.506 365.047 240.926 366.811 242.345C367.036 242.526 367.238 242.693 367.412 242.847C367.456 242.888 367.504 242.929 367.548 242.966C367.582 242.997 367.616 243.031 367.65 243.058C369.298 244.577 368.677 244.925 371.635 248.005C375.01 251.516 377.333 251.578 377.995 251.26C378.555 250.987 377.419 249.125 376.16 247.033C376.098 246.931 376.04 246.832 375.975 246.729C375.808 246.45 375.641 246.17 375.474 245.89C374 243.372 374.379 242.188 374.727 238.442C375.01 235.395 379.466 221.424 379.466 221.424L373 220.311C373 220.311 371.052 231.437 368.906 233.15C367.76 234.065 366.473 234.075 365.371 234.75C365.293 234.798 365.218 234.846 365.143 234.894C364.522 235.31 363.88 235.74 363.379 236.316Z" fill="#FFB27D"/>
<path d="M363.379 236.316C362.877 236.893 362.812 237.538 363.061 238.224C363.061 238.227 363.065 238.23 363.065 238.234C363.628 239.503 365.112 240.919 366.818 242.332C367.04 242.516 367.238 242.686 367.412 242.847C367.456 242.888 367.504 242.929 367.548 242.966C367.582 242.997 367.616 243.031 367.65 243.058C369.298 244.577 368.677 244.925 371.635 248.006C375.01 251.516 377.333 251.578 377.995 251.26C378.555 250.988 377.419 249.125 376.16 247.033C375.501 246.791 372.451 245.552 370.144 242.601C368.186 240.104 366.859 236.917 365.525 234.965C365.378 234.938 365.289 234.921 365.146 234.894C364.522 235.31 363.88 235.74 363.379 236.316Z" fill="#233862"/>
<path d="M415.516 232.28C415.915 234.276 418.76 233.942 421.94 233.167C425.12 232.389 424.363 233.314 428.887 232.812C433.411 232.311 434.782 230.625 434.919 229.953C435.042 229.356 432.807 229.145 430.408 228.868C430.108 228.834 429.805 228.797 429.501 228.759C426.795 228.418 424.813 226.671 422.353 225.238C420.023 223.88 416.549 218.343 416.549 218.343L410.347 218.834C410.347 218.834 413.602 223.778 414.861 225.927C415.601 227.193 415.563 228.865 415.471 230.155C415.42 230.857 415.376 231.577 415.516 232.28Z" fill="#FFB27D"/>
<path d="M421.94 233.164C425.12 232.386 424.363 233.311 428.887 232.809C433.411 232.307 434.783 230.622 434.919 229.95C435.042 229.353 432.807 229.141 430.409 228.865L430.385 228.913C430.385 228.913 427.672 230.837 423.905 230.926C420.835 231.001 417.587 230.12 415.464 230.155C415.417 230.857 415.372 231.574 415.512 232.277C415.915 234.276 418.76 233.942 421.94 233.164Z" fill="#233862"/>
<path d="M391.742 192.61L385.941 208.216L378.37 228.592C378.37 228.592 376.316 228.79 374.348 228.223C372.536 227.698 370.458 226.33 370.458 226.33C370.458 226.33 372.56 204.449 376.484 191.89C377.49 188.666 378.616 186.059 379.858 184.592C385.935 177.407 391.742 192.61 391.742 192.61Z" fill="#CB8E12"/>
<path d="M385.846 167.823C382.543 166.758 373.932 167.806 364.586 169.498C362.004 169.966 359.404 168.785 358.042 166.543L334.528 164.708C334.528 164.708 326.769 181.914 331.017 192.88C331.641 194.49 333.013 195.497 335.125 195.531C335.125 195.531 349.332 195.551 353.877 195.551C365.569 195.551 378.623 187.513 380.312 187.175C383.075 186.622 384.181 192.15 386.944 197.953C389.708 203.757 412.926 223.658 412.926 223.658C412.926 223.658 416.495 223.692 417.969 223.14C419.555 222.546 420.135 221.772 420.135 221.772C420.135 221.772 394.413 170.587 385.846 167.823Z" fill="#F0A202"/>
<path d="M355.546 97.4974C353.799 96.4568 352.097 96.2999 351.056 96.3272C350.329 96.3476 349.606 96.2999 348.886 96.1941C339.913 94.8771 334.508 107.914 334.191 111.851C333.611 119.081 329.783 120.186 324.399 124.714C313.604 133.793 316.77 144.346 322.673 148.266C326.214 150.617 332.458 148.266 332.458 148.266C332.547 148.328 349.531 138.771 357.904 134.161C370.459 132.377 360.589 100.5 355.546 97.4974Z" fill="#152949"/>
<path d="M350.888 130.238C350.925 130.262 346.77 131.681 343.989 130.449C341.375 129.293 339.393 124.99 339.431 124.99C340.621 124.936 341.925 123.895 342.931 117.071L343.436 117.252L351.952 120.316C351.952 120.316 351.335 123.049 350.936 125.649C350.601 127.836 350.42 129.931 350.888 130.238Z" fill="#FFB27D"/>
<path d="M351.956 120.319C351.956 120.319 351.615 121.793 351.12 124.547C346.227 123.666 344.129 119.9 343.44 117.255L351.956 120.319Z" fill="#ED975D"/>
<path d="M353.222 123.032C353.222 123.032 341.57 121.469 342.655 114.226C343.74 106.986 342.969 101.906 350.451 102.598C357.937 103.291 358.964 106.269 359.189 108.774C359.417 111.281 356.282 123.25 353.222 123.032Z" fill="#FFB27D"/>
<path d="M358.769 104.806C358.769 104.806 351.311 111.234 346.237 111.752C341.164 112.271 339.243 110.643 339.243 110.643C339.243 110.643 342.232 108.159 344.033 104.154C344.562 102.973 345.685 102.161 346.974 102.052C350.594 101.738 357.462 101.595 358.769 104.806Z" fill="#152949"/>
<path d="M354.105 104.232C354.105 104.232 356.599 106.645 357.387 108.436C358.145 110.162 358.373 114.294 357.77 115.932C357.77 115.932 361.656 108.371 359.455 104.7C357.121 100.803 354.105 104.232 354.105 104.232Z" fill="#152949"/>
<path d="M360.697 147.403C360.346 170.989 360.601 166.059 358.022 168.297C357.401 168.836 355.654 169.157 353.351 169.311C346.118 169.792 333.405 168.598 332.924 167.263C331.256 162.64 332.433 161.204 331.041 154.121C330.898 153.367 330.717 152.551 330.505 151.664C329.345 146.802 328.216 145.148 332.331 137.334C336.063 130.258 339.943 124.516 340.291 124.721C350.141 130.569 350.936 125.652 350.936 125.652C350.936 125.652 360.871 135.898 360.697 147.403Z" fill="#8C9DF4"/>
<path d="M385.941 208.216L378.37 228.592C378.37 228.592 376.316 228.79 374.348 228.223C372.536 227.698 370.458 226.33 370.458 226.33C370.458 226.33 372.56 204.45 376.484 191.89L385.941 208.216Z" fill="#F0A202"/>
<path d="M350.939 125.652C350.939 125.652 361.076 127.372 362.263 131.736C363.454 136.099 367.37 162.586 367.37 162.586C367.37 162.586 364.511 165.377 362.133 162.995C359.752 160.614 354.644 138.215 354.644 138.215L350.939 125.652Z" fill="#8C9DF4"/>
<path d="M353.351 169.307C346.118 169.788 333.405 168.594 332.924 167.26C331.256 162.637 332.433 161.201 331.041 154.117L334.528 144.295C334.528 144.295 333.951 155.233 337.175 158.109C340.396 160.986 350.383 163.664 351.949 166.066C352.71 167.222 353.208 168.379 353.351 169.307Z" fill="#707FE5"/>
<path d="M345.067 164.708C345.067 164.708 352.201 163.118 353.355 163.753C354.504 164.387 357.319 166.69 357.671 167.495C358.022 168.297 355.108 166.885 354.16 166.632C353.546 166.468 351.928 167.028 351.13 167.298C347.763 168.42 345.698 167.843 345.698 167.843L345.067 164.708Z" fill="#FFB27D"/>
<path d="M340.287 124.717C340.287 124.717 330.707 125.308 327.39 129.934C322.723 136.444 313.459 164.196 318.768 167.895C324.746 172.064 345.971 168.986 345.971 168.986C345.971 168.986 346.678 165.684 345.695 164.087C344.712 162.49 328.741 159.911 328.004 159.174C327.267 158.437 337.22 144.8 337.22 142.589C337.22 140.374 340.287 124.717 340.287 124.717Z" fill="#8C9DF4"/>
<path d="M353.696 165.738C353.696 165.738 355.19 167.666 355.681 167.898C356.173 168.127 356.487 168.072 356.487 168.072L355.48 166.26L353.696 165.738Z" fill="#FFB27D"/>
<path d="M353.351 163.753L357.698 165.865C357.698 165.865 357.514 166.168 356.978 166.141C356.442 166.117 355.095 165.622 355.095 165.622L353.351 163.753Z" fill="#FFB27D"/>
<path d="M390.466 168.713H345.067V169.716H390.063L390.466 168.713Z" fill="#152949"/>
<path d="M355.682 169.717H390.063L400.404 143.998H366.078L355.682 169.717Z" fill="#152949"/>
<path d="M381.383 156.857C381.642 155.953 381.12 155.219 380.216 155.219C379.312 155.219 378.37 155.953 378.111 156.857C377.852 157.761 378.374 158.495 379.278 158.495C380.182 158.495 381.124 157.761 381.383 156.857Z" fill="#EBF3FA"/>
<path d="M381.525 329.788L377.998 326.72L374.93 330.246L378.456 333.314L381.525 329.788Z" fill="white"/>
<path d="M332.887 389.063C332.184 386.725 331.832 386.514 331.832 386.514C331.832 386.514 309.973 389.24 306.264 388.998C304.063 388.854 277.809 380.1 277.809 380.1L261.869 395.385C261.869 395.385 301.402 401.898 306.974 401.472C316.182 400.765 330.236 392.638 330.236 392.638C330.236 392.638 333.439 390.898 332.887 389.063Z" fill="#CB8E12"/>
<path d="M273.138 563.56C273.138 563.56 273.445 570.967 274.864 572.769L294.653 572.885C294.513 572.12 294.431 570.353 291.695 569.875C288.239 569.275 284.175 566.863 282.084 562.291C279.883 557.483 273.138 563.56 273.138 563.56Z" fill="#214C7F"/>
<path d="M234.304 562.492C234.304 562.492 232.925 572.332 234.799 572.506C235.048 572.53 242.772 572.653 246.119 572.707C250.053 572.772 256.519 572.636 256.519 572.636C257.331 572.67 257.863 571.79 257.45 571.087C256.996 570.319 256.13 569.497 254.478 569.179C251.032 568.517 245.29 565.986 243.277 561.38C241.155 556.538 234.304 562.492 234.304 562.492Z" fill="#214C7F"/>
<path d="M283.428 461.644C283.428 461.644 277.925 480.897 262.155 514.333C246.385 547.766 245.703 563.881 245.703 563.881C245.703 563.881 243.315 564.723 240.149 564.389C236.723 564.024 234.304 562.495 234.304 562.495C234.304 562.495 235.324 522.699 242.776 505.827C250.224 488.956 251.742 442.783 251.742 442.783L283.428 461.644Z" fill="#707FE5"/>
<path d="M292.262 445.079C292.262 445.079 292.698 474.892 287.543 511.498C282.384 548.104 284.796 565.126 284.796 565.126C284.796 565.126 283.428 566.122 279.225 566.105C274.301 566.085 271.78 564.051 271.78 564.051C271.78 564.051 264.397 527.432 266.512 509.11C268.627 490.788 256.403 446.239 256.403 446.239L292.262 445.079Z" fill="#8C9DF4"/>
<path d="M280.279 370.765C280.228 373.105 279.914 375.651 278.979 376.899L273.728 379.656L267.907 375.34C267.907 375.34 270.04 370.611 269.518 363.695C269.467 363.279 269.259 360.628 269.259 360.577L272.169 362.03L280.071 365.981C280.071 365.981 280.071 366.138 280.122 366.346C280.177 367.124 280.279 368.84 280.279 370.765Z" fill="#FFB27D"/>
<path d="M251.193 448.76C253.097 457.474 293.875 453.65 293.343 448.33C293.323 448.153 293.217 445.69 293.07 442.373C292.76 435.195 292.289 423.98 292.231 423.103C292.231 423.089 292.227 423.072 292.227 423.059C291.494 415.652 290.788 408.408 290.743 403.676C290.702 399.571 290.136 395.378 289.385 391.567C288.693 388.053 287.84 384.859 287.099 382.372C286.577 380.618 285.605 379.08 284.319 377.868C283.401 377.009 282.326 376.313 281.142 375.842C280.818 375.705 280.49 375.593 280.153 375.497C275.356 374.105 270.514 372.331 268.716 372.86C263.844 374.293 258.419 382.925 255.857 393.863C251.056 414.331 249.947 443.083 251.193 448.76Z" fill="#F0A202"/>
<path d="M280.279 370.765C277.318 369.571 271.65 366.865 270.091 363.798C269.416 362.447 270.456 362.03 272.169 362.03L280.071 365.981C280.071 365.981 280.071 366.138 280.122 366.346C280.177 367.124 280.279 368.841 280.279 370.765Z" fill="#FCA56B"/>
<path d="M283.879 365.494C283.879 365.494 269.689 369.919 267.068 361.041C264.448 352.163 260.852 346.752 269.801 343.552C278.75 340.351 281.518 343.217 283.114 345.967C284.708 348.717 287.502 364.115 283.879 365.494Z" fill="#FFB27D"/>
<path d="M282.555 345.111C282.555 345.111 281.651 355.442 279.511 354.995C277.375 354.548 275.438 354.214 275.748 357.329C276.062 360.444 276.161 364.187 269.576 364.739C262.991 365.292 256.386 348.161 258.194 344.944C263.417 335.667 290.098 333.794 282.555 345.111Z" fill="#163560"/>
<path d="M293.07 442.373C292.76 435.195 292.289 423.98 292.231 423.103C292.231 423.089 292.227 423.072 292.227 423.059L268.14 408.657C268.136 408.654 267.201 442.278 293.07 442.373Z" fill="#CB8E12"/>
<path d="M376.177 328.215L380.517 331.992C380.517 331.992 373.075 339.959 373.768 348.342L362.659 357.721L353.46 349.714L361.151 336.957C361.151 336.957 369.397 336.656 376.177 328.215Z" fill="#163560"/>
<path d="M364.887 341.842C365.784 340.812 367.343 340.703 368.374 341.6C369.404 342.498 369.513 344.057 368.616 345.087C367.719 346.118 366.159 346.227 365.129 345.329C364.099 344.435 363.989 342.873 364.887 341.842Z" fill="white"/>
<path d="M378.745 330.41L378.034 329.792L364.915 344.865L365.626 345.484L378.745 330.41Z" fill="white"/>
<path d="M362.664 357.714L353.462 349.708L351.451 352.019L360.653 360.025L362.664 357.714Z" fill="#6C7AFF"/>
<path d="M259.995 466.874L259.548 466.485C257.129 464.38 256.877 460.716 258.979 458.297L351.447 352.023L360.649 360.031L268.18 466.304C266.079 468.723 262.414 468.979 259.995 466.874Z" fill="#163560"/>
<path d="M312.026 411.926C312.026 411.926 313.804 410.346 314.22 409.258C314.364 408.879 315.575 407.166 317.642 407.316C319.529 407.456 322.886 403.434 322.886 403.434C323.374 404.498 325.06 408.487 322.648 410.506C320.682 412.154 315.947 415.01 313.074 416.887C309.993 418.91 312.026 411.926 312.026 411.926Z" fill="#FFB27D"/>
<path d="M312.262 411.339C312.262 411.339 288.368 415.402 286.25 414.369C282.872 412.724 287.56 388.479 287.56 388.479C287.56 388.479 287.761 382.986 281.343 381.69C275.765 380.564 270.384 384.74 270.384 384.74C270.384 384.74 265.492 389.117 266.116 393.976C267.501 404.74 269.658 426.638 276.857 429.995C286.144 434.325 313.019 417.992 313.019 417.992C313.019 417.992 313.913 416.897 313.787 414.86C313.681 413.065 312.262 411.339 312.262 411.339Z" fill="#F0A202"/>
<path d="M333.883 390.799C333.883 390.799 339.915 388.602 339.383 385.518C338.851 382.433 336.971 382.822 335.838 383.887C334.702 384.951 335.333 390.41 333.883 390.799Z" fill="#FFB27D"/>
<path d="M313.804 410.35C313.804 410.35 314.626 407.934 315.503 406.897C316.38 405.86 316.752 404.106 317.151 404.689C317.55 405.273 316.83 407.374 317.151 408.173C317.472 408.968 313.804 410.35 313.804 410.35Z" fill="#FFB27D"/>
<path d="M848.135 535.074H740.094V572.598H848.135V535.074Z" fill="#AEC3FF"/>
<path d="M918.082 575H1.08497C0.487896 575 0 574.512 0 573.915V573.437C0 572.84 0.487896 572.352 1.08497 572.352H918.078C918.675 572.352 919.163 572.84 919.163 573.437V573.915C919.167 574.509 918.679 575 918.082 575Z" fill="#233862"/>
</svg>
