<?xml version="1.0" encoding="utf-8"?>
<!-- Generator: Adobe Illustrator 24.0.1, SVG Export Plug-In . SVG Version: 6.00 Build 0)  -->
<svg version="1.1" id="Layer_1" xmlns="http://www.w3.org/2000/svg" xmlns:xlink="http://www.w3.org/1999/xlink" x="0px" y="0px"
	 viewBox="0 0 786 722" style="enable-background:new 0 0 786 722;" xml:space="preserve">
<style type="text/css">
	.st0{fill:#CAE1F9;}
	.st1{opacity:0.2;fill:#9BC1F9;enable-background:new    ;}
	.st2{fill:#3C8F7C;}
	.st3{fill:#50BFA5;}
	.st4{fill:#96D9C9;}
	.st5{fill:#256653;}
	.st6{fill:#327F6B;}
	.st7{fill:#3D4CA5;}
	.st8{fill:#8C9DF4;}
	.st9{fill:#FCF5EB;}
	.st10{fill:#505ABA;}
	.st11{fill:#184655;}
	.st12{fill:#12353D;}
	.st13{fill:#F7A491;}
	.st14{fill:#F0A202;}
	.st15{fill:#F47458;}
	.st16{fill:#E25A44;}
	.st17{fill:#355389;}
	.st18{fill:#466EB6;}
	.st19{fill:#FFFFFF;}
	.st20{fill:#F79C8D;}
	.st21{fill:#F7CC7F;}
	.st22{fill:#F48C7F;}
	.st23{fill:#3CB4C5;}
	.st24{fill:#F8A492;}
	.st25{fill:#FE875E;}
	.st26{fill:#13375B;}
	.st27{fill:#0E2E35;}
	.st28{fill:#CB8E12;}
</style>
<path class="st0" d="M335.1,252.4c-5.8-3.9-11.8-7.5-17.5-11.5c-1-0.7-2-2.6-1.9-3.9c0.7-8.1,1.9-16.1,2.5-24.2
	c0.2-2.3,0.7-3.6,3-4.5c7.9-3.2,15.8-6.5,23.6-9.8c1.3-0.5,2.5-1.1,4.7-2.1c-3.8-12.1-7.6-24-11.5-36.2c-10.1,2.1-19.4,3.8-28.5,5.9
	c-3.2,0.7-5,0.4-7.1-2.6c-4.3-6.1-9.4-11.6-14.1-17.5c-0.7-0.9-1-2.7-0.6-3.8c3.1-8.1,6.1-16.2,9.7-24.1c1.7-3.8,0.8-5.8-2.6-7.5
	c-1.3-0.7-2.4-1.8-3.5-2.7c-5.9-3.1-11.7-6.2-17.6-9.3c-0.7-0.1-1.5-0.2-2.2-0.4c-7.1-2.9-5.8-2.8-9.8,3.2
	c-4.9,7.3-9.6,14.6-13.8,21c-10.9-0.9-21.1-1.8-31.6-2.7c-4-9.6-8.3-19.7-12.5-29.8c-12.8,1.8-24.6,5.9-36.1,11.5
	c2.1,10,4.1,19.7,6.1,29.4c0.4,1.7,0.3,2.8-1.4,4.1c-6.7,5-13.2,10.3-19.5,15.8c-1.8,1.6-3,1.6-5,0.8c-8.1-3.3-16.3-6.5-24.4-9.8
	c-2-0.8-3.3-0.8-4.8,1.2c-6.6,8.9-11.1,18.8-14.8,29.1c-0.7,2.1,0.3,2.9,1.8,3.9c7.2,4.6,14.3,9.4,21.5,13.9
	c2.1,1.3,2.7,2.4,2.3,5.1c-1.4,9.2-2.2,18.6-3.3,28.6c-8.8,3.7-18.7,7.9-28.6,12c1.8,13.1,5.4,25.1,11.3,36.6
	c10.9-2.3,21.4-4.6,31-6.6c6,6.8,11.5,13.4,17.3,19.5c2.2,2.3,2.6,4.1,1.3,7c-3.4,7.7-6.4,15.5-9.5,23.3c-0.6,1.5-1.8,3.3,0.6,4.6
	c9.8,5.1,19.6,10.2,29.4,15.3c2.1,1.1,3.4,0.4,4.6-1.6c4.6-7.3,9.6-14.4,14.1-21.8c1.7-2.8,3.6-3,6.6-2.6c7.3,0.9,14.6,1.7,21.9,1.8
	c3.2,0.1,4.3,0.9,5.4,3.7c3.5,9,7.3,17.9,10.9,26.6c7.8-0.1,29.1-6.9,36.7-11.7c-2.1-9.6-4.1-19.3-6.3-29c-0.6-2.4,0.1-3.5,2-4.9
	c5.9-4.7,11.5-9.9,17.4-14.7c1-0.8,3-1.3,4.2-0.8c7.2,2.8,14.4,5.8,21.5,8.8c4,1.7,5.6,2.4,7.1,1.4l16.5-31.1
	C341.5,256.8,339.8,255.6,335.1,252.4z M273,242c-14.7,27.8-49.2,38.5-77.1,23.7c-27.8-14.7-38.5-49.2-23.7-77.1
	c14.7-27.8,49.2-38.5,77.1-23.7C277.1,179.6,287.7,214.1,273,242z"/>
<path class="st1" d="M568.7,212.7c-2.1-1.4-4.3-2.8-6.4-4.2c-0.4-0.3-0.7-1-0.7-1.4c0.3-3,0.7-5.9,0.9-8.9c0.1-0.9,0.3-1.3,1.1-1.6
	c2.9-1.2,5.8-2.4,8.7-3.6c0.5-0.2,0.9-0.4,1.7-0.8c-1.4-4.4-2.8-8.8-4.2-13.3c-3.7,0.8-7.1,1.4-10.5,2.2c-1.2,0.3-1.8,0.1-2.6-1
	c-1.6-2.2-3.5-4.3-5.2-6.4c-0.3-0.3-0.4-1-0.2-1.4c1.1-3,2.2-5.9,3.5-8.8c0.6-1.4,0.3-2.1-0.9-2.8c-0.5-0.2-0.9-0.7-1.3-1
	c-2.1-1.1-4.3-2.3-6.4-3.4c-0.3-0.1-0.6-0.1-0.8-0.2c-2.6-1.1-2.1-1-3.6,1.2c-1.8,2.7-3.5,5.4-5.1,7.7c-4-0.3-7.7-0.7-11.6-1
	c-1.5-3.5-3-7.2-4.6-11c-4.7,0.7-9,2.2-13.3,4.2c0.8,3.7,1.5,7.2,2.2,10.8c0.1,0.6,0.1,1-0.5,1.5c-2.4,1.9-4.8,3.8-7.2,5.8
	c-0.7,0.6-1.1,0.6-1.8,0.3c-3-1.2-6-2.4-9-3.6c-0.7-0.3-1.2-0.3-1.8,0.4c-2.4,3.3-4.1,6.9-5.4,10.7c-0.3,0.8,0.1,1.1,0.7,1.4
	c2.6,1.7,5.2,3.4,7.9,5.1c0.8,0.5,1,0.9,0.9,1.9c-0.5,3.4-0.8,6.8-1.2,10.5c-3.2,1.4-6.9,2.9-10.5,4.4c0.7,4.8,2,9.2,4.1,13.4
	c4-0.8,7.9-1.7,11.4-2.4c2.2,2.5,4.2,4.9,6.3,7.2c0.8,0.9,1,1.5,0.5,2.6c-1.2,2.8-2.4,5.7-3.5,8.6c-0.2,0.6-0.7,1.2,0.2,1.7
	c3.6,1.9,7.2,3.7,10.8,5.6c0.8,0.4,1.2,0.1,1.7-0.6c1.7-2.7,3.5-5.3,5.2-8c0.6-1,1.3-1.1,2.4-1c2.7,0.3,5.4,0.6,8.1,0.7
	c1.2,0,1.6,0.3,2,1.3c1.3,3.3,2.7,6.6,4,9.8c2.9,0,10.7-2.5,13.5-4.3c-0.8-3.5-1.5-7.1-2.3-10.6c-0.2-0.9,0.1-1.3,0.7-1.8
	c2.2-1.7,4.2-3.6,6.4-5.4c0.4-0.3,1.1-0.5,1.5-0.3c2.7,1,5.3,2.1,7.9,3.2c1.5,0.6,2.1,0.9,2.6,0.5l6.1-11.4
	C571.1,214.2,570.4,213.8,568.7,212.7z M545.9,208.8c-5.4,10.2-18.1,14.1-28.3,8.7c-10.2-5.4-14.1-18.1-8.7-28.3
	c5.4-10.2,18.1-14.1,28.3-8.7C547.4,185.9,551.3,198.6,545.9,208.8z"/>
<path class="st2" d="M198.4,608.8c0,0-109.4-53.9-128.2-82.1C51.4,498.6,79,497,79,497s-48.8-47.5-42-67.5c6.9-20,32.2-1.7,32.2-1.7
	S37.9,358,52.7,351c27.6-13.1,66.2,62.1,66.2,62.1s-8.3-32.7,10.7-31.6C158.2,383.1,157,457,157,457s3.2-28.3,20.5-19.1
	C208.5,454.4,198.4,608.8,198.4,608.8z"/>
<path class="st3" d="M183.8,426.4c-13.5-7.5-26.9,14.4-26.9,14.4s1.4-57.7-27.3-59.3c-19-1.1-10.7,31.6-10.7,31.6
	S80.2,337.9,52.7,351l145.9,256.6C199.6,589.7,210.4,441.2,183.8,426.4z"/>
<path class="st2" d="M195.6,609.5c0,0-89.5,11.1-112.6,1.2c-23.2-9.9-6.6-22.1-6.6-22.1s-49.7-9.8-53.6-25
	c-3.8-15.3,19.1-14,19.1-14s-47.7-30.9-41.3-41.3C12.5,488.8,67.1,520,67.1,520s-18.5-17-6.2-24c18.5-10.6,47.8,35.9,47.8,35.9
	s-1.8-11.5,12.7-12.7C147.5,516.9,195.6,609.5,195.6,609.5z"/>
<path class="st3" d="M122,510.8c-14.5,1.3-13.3,21.1-13.3,21.1s-29.8-55.2-48.3-44.6c-12.3,7.1,2.2,30.2,2.2,30.2
	s-50.2-28.7-62.1-9.4L195.9,609C189.2,597.4,146.3,508.7,122,510.8z"/>
<path class="st3" d="M710.1,478.8l4.8-11.6c3.7-8.5,13.3-12.6,21.3-9.1c20.3,8.8,29.1,33.5,19.7,55l-6.9,15.7
	c-3,6.9-2,14.5,2.1,19.8c3.7,4.9,4.3,11.6,1.7,17.5l-3.6,8.3c-3.9,9-11.5,15.6-20.6,18.4c-5.3,1.6-10,5.6-12.4,11.2l-5.1,11.7
	c-5.7,13-20.2,19.2-32.4,13.8l-7-3c-12.2-5.3-17.5-20.2-11.9-33.2c9.2-15.5,8.4-27.1,5.2-35c-4.8-11.6-4.7-24.9,0.4-36.7l0.7-1.7
	c5.5-12.5,16-21.8,28.5-25.8C700.2,492.5,706,488.2,710.1,478.8z"/>
<path class="st4" d="M393.5,708.2c-13-16.8-84.2-107-130.6-122.1c-51.3-16.6-2.9,49.3-2.9,49.3S169,536,135.6,545
	c-30.6,8.2,0,69.8,0,69.8s-34.5-34.1-76.2-34.1c-40.7,0,28.4,121,32.1,127.5H393.5z"/>
<path class="st5" d="M777.1,347.1c0,0-13.1,16.9-20.8,23.6c-7.7,6.6-15.1,13-24.9,34.1c-9.8,21.1-9.6,23.5-12.2,29
	c-2.6,5.4-16.3,26.7-17.4,31c-1,4.2-23.5,24.6-30.4,35c-6.9,10.4-18.3,24.8-19.8,33.2l2,0c0,0,6-18.9,23.8-35.3
	c17.8-16.4,16.7-20.5,34.1-27c17.4-6.5,33.5-31.9,33.5-31.9s22.3-26.4,25.2-42.2C773.3,380.8,780.6,367.7,777.1,347.1z"/>
<path class="st5" d="M763.5,313.3c0,0-3.4,12.3-9.1,18.8c-5.7,6.5-10.2,10.1-12.8,18c-2.6,7.8-9.9,27.9-23.4,35.3
	c-13.5,7.5-22,37.3-32.6,44.4c-10.6,7.1-13.3,13.4-15.3,29.5c-2.1,16-1.8,38.9-20.7,64.4l-1.2-7.7c0,0,14.3-21.2,15.3-35.4
	c1-14.1-1.6-36.5,3.4-45.7s-4.7-13.5,4.9-27.1c9.6-13.5,8.3-19.3,19.6-30.3c0,0,1-0.4,5.7-10.8c4.7-10.4,27-26.4,36.7-31.3
	C743.6,330.4,757.9,322.1,763.5,313.3z"/>
<path class="st2" d="M716.1,367.2c0,0-13.6,14.4-16.2,25.1c-2.6,10.7-3.5,19.7-11.8,33.2c-8.3,13.5-0.7,25.1-5.4,32.5
	c-4.7,7.4-7.1,17-8.8,24.3c-1.6,7.3-18.4,28.7-23,40.5c-4.5,11.8-2.4,12.3-2.4,12.3s5.6-15.7,9.4-20.4c3.8-4.7,15.9-21.2,19.4-27.9
	c3.5-6.7,9.5-10.1,16.6-21.1c7.1-11,15.5-19.7,19-36.9C716.5,411.7,727.6,395.3,716.1,367.2z"/>
<path class="st2" d="M657.6,525.4c0,0,9.4-20.1,29.1-17.7c19.6,2.3,30,8.7,47.1-3.6c17.1-12.3,30.6-35,35.9-38.2c0,0-6-5.1-19.7,2.9
	c-13.7,7.9-23.5,14.1-31.5,18.7c-8,4.6-12.3-0.6-20.2,1.8c-6.6,2.1-16.3,10.1-20.8,14.5c-1.5,1.4-3.1,2.7-4.8,3.7
	c-1.6,0.9-3.5,2-4.8,2.9c-2.5,1.7-11.7,14.8-11.7,14.8L657.6,525.4z"/>
<path class="st2" d="M651.8,520.1c0,0,12.7-24.3,11.2-38c-1.6-13.7-13.5-26.3-11.1-34.1c2.4-7.8,16.5-27.2,12.8-44.9
	c0,0-6.1,13.6-9.6,16.1c-3.5,2.5-25.5,10.9-26.1,28.6c-0.6,17.7,17,25.9,20.4,31.9s9.5,7.5,8.8,10.8c-0.7,3.3-2.3,15.6-7.1,27
	L651.8,520.1z"/>
<path class="st6" d="M663.1,504.6l15.8-25.1c0,0,10.7-20.6,18.1-38.2c7.5-17.5,19-74.1,19-74.1s-13.6,14.4-16.2,25.1
	c-2.6,10.7-3.5,19.7-11.8,33.2c-8.3,13.5-0.7,25.1-5.4,32.5c-4.7,7.4-7.1,17-8.8,24.3c-1.6,7.3-18.4,28.7-23,40.5
	c-2.5,6.5-3,9.5-2.9,11C649,522.7,663.1,504.6,663.1,504.6z"/>
<path class="st6" d="M713.5,499.2c-8.8-0.3-16.3-2.6-28,2.5c-11.8,5.1-19.5,11.7-19.5,11.7s-6.4,7-9.2,10.8
	c-0.4,0.6-0.7,0.9-0.7,0.9l1.5,0.3c0,0,9.4-20.1,29.1-17.7c19.6,2.3,30,8.7,47.1-3.6c17.1-12.3,30.6-35,35.9-38.2
	c0,0-17,7.8-28.1,15.7S722.4,499.4,713.5,499.2z"/>
<path class="st6" d="M655,419.3c-3.5,2.5-25.5,10.9-26.1,28.6c-0.6,17.7,17,25.9,20.4,31.9s9.5,7.5,8.8,10.8
	c-0.7,3.3-2.3,15.6-7.1,27l0.3,1.1c2.1-4.4,5.1-11.1,6.8-16.4c2.8-8.5,2.2-12.4,1-20.1c-1.2-7.7-15.2-26.1-17.8-34.6
	c-2.6-8.6,13.1-18.2,17.3-23.6c4.2-5.4,5.9-20.8,5.9-20.8S658.5,416.8,655,419.3z"/>
<path class="st4" d="M419.8,708.2c13-16.8,84.2-107,130.6-122.1c51.3-16.6,2.9,49.3,2.9,49.3S644.3,536,677.7,545
	c30.6,8.2,0,69.8,0,69.8s34.5-34.1,76.2-34.1c40.7,0-28.4,121-32.1,127.5H419.8z"/>
<path class="st5" d="M191.3,707.7c-41.5-56.4-92-108.6-152-154c-0.6-0.5-1.4,0.6-0.8,1.1c56.9,43.7,107.3,95.4,149.7,153.8
	L191.3,707.7z"/>
<path class="st5" d="M72.8,604.2c1.4-1,5-4.7,9.8-5.9c4.5-1.5,10.3-0.5,10.1-0.4c0.1,0.3-3.8-4.2-9.9-5.5c-5.9-1.7-13.9-0.3-16.5,2
	c-6,4-6.4,10.9-3.5,12.2C65.7,608.1,69.6,606.2,72.8,604.2z"/>
<path class="st5" d="M48.3,582.7c1.4-1,5-4.7,9.8-5.9c4.5-1.5,10.3-0.5,10.1-0.4c0.1,0.3-3.8-4.2-9.9-5.5c-5.9-1.7-13.9-0.3-16.5,2
	c-6,4-6.4,10.9-3.5,12.2C41.2,586.6,45.2,584.7,48.3,582.7z"/>
<path class="st5" d="M113.9,594.7c-1.3,0.8-5.9,2.4-8.1,6.1c-2.5,3.3-2.4,8.7-2.3,8.6c0.3,0.2-3.7-4.9-4-10.7
	c-0.7-5.8,2.3-12.2,5.2-13.5c5.4-3.6,12.8-1.2,13.6,1.8C119.3,590.1,116.6,592.7,113.9,594.7z"/>
<path class="st5" d="M120.2,517.7c37.2,58,64.3,122.5,79.8,190.9l2.5-0.7c-15.4-67-42.4-131.4-79.5-189.3
	c-8.6-13.5-17.9-29.4-34.1-34.7c-0.3-0.1-0.4,0.4-0.1,0.5C103.6,490,112.2,505.1,120.2,517.7z"/>
<path class="st5" d="M116.8,481.8c-1,1.4-4.6,5.1-5.7,9.9c-1.4,4.6-0.3,10.3-0.2,10.1c0.3,0.1-4.2-3.7-5.6-9.8
	c-1.8-5.8-0.5-13.9,1.7-16.6c3.9-6,10.8-6.7,12.1-3.7C120.5,474.6,118.8,478.6,116.8,481.8z"/>
<path class="st5" d="M107.9,533.5c1.4-1,5-4.7,9.8-5.9c4.5-1.5,10.3-0.5,10.1-0.4c0.1,0.3-3.8-4.2-9.9-5.5c-5.9-1.7-13.9-0.3-16.5,2
	c-6,4-6.4,10.9-3.5,12.2C100.9,537.4,104.8,535.5,107.9,533.5z"/>
<path class="st5" d="M121.4,556.2c1.4-1,5-4.7,9.8-5.9c4.5-1.5,10.3-0.5,10.1-0.4c0.1,0.3-3.8-4.2-9.9-5.5c-5.9-1.7-13.9-0.3-16.5,2
	c-6,4-6.4,10.9-3.5,12.2C114.3,560.1,118.2,558.2,121.4,556.2z"/>
<path class="st5" d="M135.6,507.4c-1.2,1.2-5.4,4.3-7.2,8.9c-2.1,4.3-1.9,10.1-1.8,9.9c0.3,0.2-3.6-4.3-4-10.5
	c-0.9-6,1.7-13.8,4.3-16.1c4.8-5.4,11.7-4.9,12.5-1.8C140.4,501,138,504.6,135.6,507.4z"/>
<path class="st5" d="M155.3,533.2c-1.7,0.9-7.5,2.5-10.4,6.8c-3.3,3.9-3.7,10.5-3.5,10.3c0.3,0.3-4.1-6.4-3.9-13.5
	c-0.4-7.1,3.8-14.7,7.5-16.1c6.9-3.9,15.7-0.4,16.4,3.4C162.3,528,158.8,531,155.3,533.2z"/>
<path class="st5" d="M176.1,572.2c-1.8,0.6-7.8,1.2-11.4,5c-3.9,3.3-5.4,9.7-5.2,9.6c0.3,0.3-3-7-1.6-14c0.8-7.1,6.2-13.8,10.1-14.6
	c7.5-2.7,15.6,2.2,15.6,6.1C183.8,568.2,179.9,570.6,176.1,572.2z"/>
<path class="st5" d="M82.7,490.9c0.8-0.6,2.7-3,5.5-3.9c2.6-1.1,6.1-0.7,6-0.7c0.1,0.2-2.4-2.3-6.1-2.8c-3.5-0.8-8.2,0.4-9.7,1.9
	c-3.4,2.6-3.3,6.7-1.5,7.4C78.6,493.5,80.9,492.2,82.7,490.9z"/>
<path class="st5" d="M90.1,474.3c0,1-0.7,4,0.3,6.8c0.7,2.8,3.1,5.3,3.1,5.1c0.2,0-3.3-0.5-5.9-3.1c-2.8-2.3-4.7-6.8-4.4-8.9
	c0.1-4.3,3.3-6.7,4.9-5.7C89.7,469.6,90.1,472.1,90.1,474.3z"/>
<path class="st5" d="M30.7,560.8c0.8-0.6,2.7-3,5.5-3.9c2.6-1.1,6.1-0.7,6-0.7c0.1,0.2-2.4-2.3-6.1-2.8c-3.5-0.8-8.2,0.4-9.7,1.9
	c-3.4,2.6-3.3,6.7-1.5,7.4C26.7,563.4,28.9,562.1,30.7,560.8z"/>
<path class="st5" d="M39.7,544.1c-0.1,1-1,3.9-0.3,6.8c0.5,2.8,2.7,5.5,2.7,5.4c0.2,0-3.2-0.8-5.7-3.6c-2.6-2.6-4.1-7.2-3.6-9.2
	c0.4-4.3,3.8-6.5,5.3-5.3C39.7,539.3,39.8,541.9,39.7,544.1z"/>
<path class="st5" d="M47.7,655.5c37.9,4.2,73.3,20.9,107.3,37.2c22.9,11,21.8,14.1,26.4,15.8c0.8,0.3,1.5-0.6,1.1-1.3
	c-1.8-3.6-6.5-6-9.8-8c-3.8-2.4-7.8-4.5-11.8-6.5c-8.7-4.2-17.5-8-26.4-11.8c-18-7.8-36.2-15.1-55.2-20.1c-10.4-2.7-21-4.7-31.7-5.7
	C47.5,655.2,47.5,655.5,47.7,655.5z"/>
<path class="st5" d="M78.6,643.3c-0.2,1.6-1.9,6.1-0.9,10.5c0.6,4.4,3.8,8.7,3.8,8.5c0.3,0-5-1.4-8.6-6c-3.8-4.2-5.9-11.4-5.1-14.6
	c0.9-6.6,6.4-9.8,8.7-7.9C78.9,635.8,79,639.8,78.6,643.3z"/>
<path class="st5" d="M112.1,655.2c-0.2,1.6-1.9,6.1-0.9,10.5c0.6,4.4,3.8,8.7,3.8,8.5c0.3,0-5-1.4-8.6-6c-3.8-4.2-5.9-11.4-5.1-14.6
	c0.9-6.6,6.4-9.8,8.7-7.9C112.3,647.8,112.4,651.8,112.1,655.2z"/>
<path class="st5" d="M146,670.4c-0.2,1.6-1.9,6.1-0.9,10.5c0.6,4.4,3.8,8.7,3.8,8.5c0.3,0-5-1.4-8.6-6c-3.8-4.2-5.9-11.4-5.1-14.6
	c0.9-6.6,6.4-9.8,8.7-7.9C146.3,662.9,146.4,666.9,146,670.4z"/>
<path class="st5" d="M68.7,674.5c0.7-1.3,2-5.5,5.2-8.2c2.9-2.9,7.7-4.3,7.6-4.1c0.2,0.2-4.5-1.7-9.7-0.4
	c-5.1,0.9-10.8,5.1-11.9,7.9c-3,5.4-0.8,10.8,2,10.7C64.7,680.1,67,677.2,68.7,674.5z"/>
<path class="st5" d="M103.4,686.8c0.7-1.3,2-5.5,5.2-8.2c2.9-2.9,7.7-4.3,7.6-4.1c0.2,0.2-4.5-1.7-9.7-0.4
	c-5.1,0.9-10.8,5.1-11.9,7.9c-3,5.4-0.8,10.8,2,10.7C99.5,692.4,101.8,689.5,103.4,686.8z"/>
<path class="st5" d="M42.2,661.8c0.6-0.7,2-3.2,4.4-4.5c2.2-1.4,5.4-1.7,5.3-1.6c0.1,0.1-2.6-1.7-6-1.5c-3.4-0.1-7.4,1.8-8.5,3.4
	c-2.6,3-1.9,6.7-0.2,7C38.9,664.9,40.8,663.3,42.2,661.8z"/>
<path class="st5" d="M46.2,645.5c0.1,0.9,0,3.8,1.4,6.1c1.1,2.4,3.7,4.3,3.7,4.1c0.2-0.1-3.1,0.1-5.9-1.8c-2.9-1.7-5.4-5.4-5.5-7.3
	c-0.7-3.9,1.9-6.7,3.5-6C45,641.2,45.8,643.5,46.2,645.5z"/>
<path class="st7" d="M596,629.9C700.9,525,700.9,355,596,250.1c-104.9-104.9-275-104.9-379.9,0C111.2,355,111.2,525,216.1,629.9
	C321,734.8,491.1,734.8,596,629.9z"/>
<path class="st8" d="M579.2,613.2c95.7-95.6,95.7-250.7,0-346.3c-95.7-95.6-250.7-95.6-346.4,0c-95.7,95.6-95.7,250.7,0,346.3
	C328.5,708.8,483.6,708.8,579.2,613.2z"/>
<path class="st9" d="M551.7,585.6c80.4-80.4,80.4-210.8,0-291.2c-80.4-80.4-210.9-80.4-291.3,0c-80.4,80.4-80.4,210.8,0,291.2
	S471.2,666,551.7,585.6z"/>
<path class="st8" d="M515.5,549.5C576,489,576,391,515.5,330.6c-60.5-60.5-158.5-60.5-219,0c-60.5,60.4-60.5,158.5,0,218.9
	C357,609.9,455,609.9,515.5,549.5z"/>
<path class="st9" d="M483.8,517.7c42.9-42.9,42.9-112.5,0-155.5c-42.9-42.9-112.6-42.9-155.5,0c-42.9,42.9-42.9,112.5,0,155.5
	C371.2,560.7,440.8,560.7,483.8,517.7z"/>
<path class="st10" d="M434.1,440c0,15.5-12.6,28-28,28c-15.5,0-28-12.5-28-28c0-15.5,12.6-28,28-28C421.5,412,434.1,424.5,434.1,440
	z"/>
<path class="st11" d="M578.2,300.9l-1-18.2l61.7-48.2l-3.2,26.4l-60.4,47.3L578.2,300.9z"/>
<path class="st12" d="M582.7,307l17.4,5.4l61.7-48.2l-26.4-3.2L575,308.2L582.7,307z"/>
<path class="st11" d="M403.9,442.3c1.4,1.8,4,2.1,5.8,0.7l173.7-135.9l-5.1-6.5L404.6,436.5C402.8,438,402.5,440.5,403.9,442.3z"/>
<path class="st13" d="M663.1,492.8c0,1.7,0.7,3.2,1.5,3.2c0.8,0,1.5-1.4,1.5-3.2c0-1.7-0.7-3.2-1.5-3.2
	C663.8,489.6,663.1,491,663.1,492.8z"/>
<path class="st13" d="M649.5,697.1c0.4-2.7,0.5-6.9,0.5-11.7h9.5c-1,6.8-1.8,12.1-1.8,12.1l0.2,2.2l0,6.4h-20.8c0,0,4.4-2,10.6-5.9
	C648.1,699.9,649.2,699,649.5,697.1z"/>
<path class="st13" d="M690,695.6l-2.8-7.9h7.2c0.4,5.1,0.5,8.5,0.5,8.5l1.8,5.2l1.9,6.2c0,0-6.2,1.6-9.4-0.2l0.4-6.2L690,695.6z"/>
<path class="st14" d="M652.5,523.5c2.5-3.4,12.9-13.4,14-13.3c3.4,0.1,14.4,0.1,16.5,1.2l-0.1,18.9c-0.3,1.6-7.9,26.3-7.5,31.7
	l-0.1,0c-6.4,6.1-16.4,5.7-22.2-1.1c0,0,0-7.5-0.9-14.3C650.8,535.8,646.2,532,652.5,523.5z"/>
<path class="st13" d="M669.8,499.5c0,0-0.3,7,0.3,9.6c0.6,2.6,1.5,2.8-3.9,3.6c-2.1,0.3-4.2,0.8-4.2,0.8s0.6-3.9,0.6-5.5
	c0.1-2.7-0.6-11-0.6-11L669.8,499.5z"/>
<path class="st15" d="M665.7,502.9c-1.1,0.6-2.1,1-3.1,1.1c-0.2-3.3-0.5-7.1-0.5-7.1l7.4,2.4C668.6,500.8,667.4,502,665.7,502.9z"/>
<path class="st16" d="M689.7,701.2c2.8,1.3,5.9,0.5,7.1,0.1l0.4,1.1l1.6,5.2c0,0-6.2,1.5-9.5-0.2L689.7,701.2z"/>
<path class="st16" d="M658.1,707.7h-21.6c-0.8-0.1-1-0.7-0.7-1.1c0.6-0.8,3.1-1.4,5.9-2.8c5,0.5,15.4-2.9,16.2-4.1
	C658.3,702,658.6,707.6,658.1,707.7z"/>
<path class="st17" d="M659.7,562.3l12.7,90.1l11.5,41.6h12.6c0,0-2.9-33.5-9.2-45.3c0,0-2.7-31.8-5.5-51.2
	c-0.4-2.9,1.6-10.4,1.1-12.4c-4-15-7.6-23.1-7.6-23.1L659.7,562.3z"/>
<path class="st18" d="M667.6,601.2l-2.9,34.6c0,0,3,19.8,0.9,32.9s-4.8,25.2-4.8,25.2h-11.5l-2.3-65.4c0,0-4.4-35.5-2.9-45.2
	c1.5-9.6,9-22.5,9-22.5l18.2,0.8c0,0,4.9,17.6,4.1,23.6C674.7,589.7,667.6,601.2,667.6,601.2z"/>
<path class="st11" d="M685.4,541.9c13.7-4.1,10-16.2,10-15.7c0-0.4,1.3-1.9,2-3.2c2.7-5.4-0.8-11.9-4.9-14.2c2.7-6.9,0-13.5-5-16.3
	c-2.5-1.4-4.7-3.4-6.4-5.7c-3.8-5.1-10.7-10.2-19.1-8.5c-8.2,2.1,2.8,6.9,1.7,14.8c-0.6,4,1,3.4,3.5,6.7c-3.6,6.3-1.5,16.8,4,21.6
	C668.5,532.6,671.4,546.1,685.4,541.9z"/>
<path class="st11" d="M675.2,486.6c1.6,6.7-7.1,11.5-14.1,11.7c-4.5,0.1-6.6-0.3-7.3-5.1c-1.2-7.7,2-12.4,6.5-14.4
	C666,476.3,673.9,481.1,675.2,486.6z"/>
<path class="st13" d="M665,482.1c0,0,3.1,1,4.7,4.1s0.8,13-6,16.2c-6.8,3.3-9.9-4.1-9.4-9.6C654.9,487.4,656.8,480.2,665,482.1z"/>
<path class="st19" d="M660.8,497.3l-4.8-0.1c0,0,0.1,1.9,2.2,2C660.8,499.3,660.8,497.3,660.8,497.3z"/>
<path class="st11" d="M672.1,493.7c1-5.1,0.6-9-3-10.8c-3.6-1.9-6.7-3.7-10-0.4l-0.7,0.4c0,0,6.1,1.7,6.5,4.9
	c0.3,3.3,3.6,7.1,3.1,8.7c-0.5,1.6-1.1,4.8-1.1,4.8l1.3-1.1C668.2,500.2,671.1,498.8,672.1,493.7z"/>
<path class="st13" d="M665.8,491.7c-0.5,1.4-0.1,2.8,0.9,3.2c1,0.3,2.2-0.5,2.7-1.9c0.5-1.4,0.1-2.8-0.9-3.2
	C667.5,489.4,666.3,490.3,665.8,491.7z"/>
<path class="st14" d="M151,613.2h62.4l-14.9,94.7h6.4L288.8,174h-6.4l-1.3,8h-62.5l1.3-8h-6.4l-84,533.8h6.4L151,613.2z M258,329.4
	l-10.3,65.5h-62.4l10.3-65.5H258L258,329.4z M196.4,324l10.3-65.5h62.5L258.8,324H196.4L196.4,324z M246.8,400.4l-10.3,65.5h-62.4
	l10.3-65.5H246.8z M235.7,471.3l-10.3,65.5H163l10.3-65.5H235.7z M280.3,187.6L270,253h-62.5l10.3-65.5H280.3z M151.9,607.8
	l10.3-65.5h62.4l-10.3,65.5H151.9z"/>
<path class="st20" d="M416.6,86c-0.1,0.2-0.6,1.9-1.4,4.3l8.3,1.7c0.1-1.4,0.2-2.5,0.3-3.3c0.7-5.8,3.4-7.4,4.8-10.6
	c1.4-3.2,6.8-5.2,6.2-6.3c-0.7-1.1-5.7,3.3-6.9,2.8c-1.2-0.5,4.3-7.1,3.7-8c-1.2-1.6-6.5,7-7.1,6.2c-0.6-0.7,4.4-9.8,2.4-9.9
	c-2-0.1-4.2,9.8-5.3,9.4c-1.1-0.4,2.9-9.1,0.9-10.4c-1.1-0.7-4.9,15.5-6.6,16.4c-1.7,0.9-4.1-5.4-5.7-4.9
	C408.5,73.9,416.9,85,416.6,86z"/>
<path class="st20" d="M339,51.5c0,0.2-0.2,2-0.5,4.5l-8.3-1.9c0.5-1.3,0.9-2.4,1.1-3.1c1.8-5.6-0.1-8.1,0-11.6
	c0.1-3.5-4.1-7.6-3-8.3c1.1-0.7,3.8,5.4,5.1,5.5s-1-8.3,0-8.8c1.8-1,3,9,3.9,8.6c0.9-0.4,0-10.7,1.9-10c1.9,0.7-0.2,10.7,0.9,10.7
	c1.1,0,1.1-9.5,3.5-9.9c1.3-0.2-1.9,16.1-0.8,17.7c1.2,1.6,6-3.3,7.2-2.1C351.4,44,339.2,50.5,339,51.5z"/>
<path class="st14" d="M424.6,89.5c0,0-9.9-2.4-10-1.6c-2.1,17.5-3,23.8-3.4,24c-1.2,0.6-17.2-14-20-15c-1.4-0.5-2.8-0.4-4.3-0.4
	c-3.4,0.1-4.1,0.1-4.1,0.1c-0.1,0-0.1,0-0.1,0l0,3.2c3.8,3.4,12.5,55.4,13.3,55.4c0.8,0,18.1,4.3,17.8,2.9c0-0.2-11.7-9.8-15-23.5
	c-1.1-4.6-1.7-9.6-2.3-13.9c3.8,1.9,18.8,9.3,21.2,8.3C425.1,125.9,424.6,89.5,424.6,89.5z"/>
<path class="st13" d="M454.3,181.8c0,0,16.1,12.6,16.6,14.8c0.8,3.2,15.5-1,11.9-1.7c-0.8-0.1-3.4-0.8-3.6-0.9
	c-1.1-0.6-15.4-17.8-15.4-17.8L454.3,181.8z"/>
<path class="st21" d="M489.7,194.9l-10.3-0.8c0,0-2.9,2.4-8.6,2.5c0,0-0.9,2.6-0.5,5.6c0.1,0.5,0.2,2.1,0.7,2.1
	c1.9-0.1,6.9-1.4,12.7-2.5c0,0,7.7-1.6,12.2-4.3C500.5,194.7,489.7,194.9,489.7,194.9z"/>
<path class="st17" d="M382.4,150.2c0,0,11.8,2,24.8-1.1c15-3.5,31.7-6.8,36.6-3.9c3.9,2.3,28.4,39.3,28.4,39.3l-9.5,6.9l-27-30.2
	c0,0-34.4,12.7-42.2,11.3C375.9,169.3,375.7,155.2,382.4,150.2z"/>
<path class="st13" d="M419.1,206.6c0,0-0.7,19.4-1.2,22.7c-0.4,3.3,8.2,13.1,7.1,9.7c-0.3-0.8-0.9-3.4-0.9-3.6
	c0-1.3,3.2-23.4,3.2-23.4L419.1,206.6z"/>
<path class="st21" d="M430.7,246.1l-6.4-10.4c0,0-3.5-1.4-6.3-6.3c0,0-2.7,0.4-5.1,2.2c-0.4,0.3-3.3,2.4-3.1,2.9
	c0.7,1.8,4.6,5.6,8.9,9.8c0,0,6.1,4.9,10.5,7.5C433.6,254.5,430.7,246.1,430.7,246.1z"/>
<path class="st18" d="M438.2,168.3c-4.1-5.5-37.3-10.7-37.3-10.7l-9.3-17.8l-20.5,12.6c0,0,2,16.3,3.6,20.6c2,5.8,15.8,6.1,24.2,6
	c7.7-0.1,21.8,1.5,21.8,1.5l-4.8,42.1c0,0,9.4,2.1,12,1.8C428.4,224.5,443.3,175.1,438.2,168.3z"/>
<path class="st11" d="M382.9,96.7l-11.5,0.6c0,0-0.3,0.1-0.3,0.1c-0.9,0.2-0.1,33.8,0.8,46.4c0.8,12.6,2.5,17.8,2.5,17.8
	s15.7-2.8,20.5-4.6c2-0.8,6.8-6.8,6.8-6.8s-4.9-6.6-7.4-17.4c-1.9-8.3-4.3-23-5.6-26.1C385.4,99.7,382.9,96.7,382.9,96.7z"/>
<path class="st13" d="M371.6,87.2l-0.3,10.2c0,0,7.5,12.9,11.3,11.1c3.2-1.5,0.4-11.3,0.4-11.3s-0.6-2.2-1.3-4.8
	c-0.5-1.8-1-3.8-1-5.2C380.8,83.7,371.6,87.2,371.6,87.2z"/>
<path class="st15" d="M380.7,87.1c0.1-3.5-9.1,0-9.1,0l0,1c0.3,0.5,0.6,0.9,1,1.2c2.5,2,6,2.9,8.9,2.6
	C381,90.2,380.7,88.5,380.7,87.1z"/>
<path class="st14" d="M380.6,63.9c0,0,3.8,5.7,4.1,10.6c0.3,4.8-0.7,8.1-0.7,8.1L371.7,68L380.6,63.9z"/>
<path class="st22" d="M385.9,73.5c0.2,1.7-0.5,3.1-1.5,3.2c-1,0.1-1.9-1.2-2.1-2.9c-0.2-1.7,0.5-3.1,1.5-3.2
	C384.8,70.5,385.8,71.8,385.9,73.5z"/>
<path class="st13" d="M367.7,70.4c-0.3-0.1-0.3,14,3.8,17.3c4.1,3.3,11.2,3.6,13.2,0.3c2.3-3.7,0.1-18.5-6-21.6
	C372.8,63.2,367.7,70.4,367.7,70.4z"/>
<path class="st14" d="M366.7,61.7c-3.1,2.7-4.6,4.7-6.7,9.6c-2.6,6,2.5,12.1,6.9,14.6c4.3,2.5,4.7,5.4,4.7,5.4l0.2-1.8
	c0.1-0.7,0.1-1.2-0.1-1.7c-0.1-0.6-0.4-1-0.6-1.5c-0.4-0.8-1.5-3.5-2-4.2c-1.2-1.9-1.5-2.3-0.9-4c0.5-1.4-0.1-4.4,0.6-6.6l5.8-1.3
	c0,0,3.6-0.9,5.5-3C385.3,61.1,374.9,54.3,366.7,61.7z"/>
<path class="st13" d="M369.5,79.6c0.7,1.5,0.6,3.1-0.3,3.5c-0.9,0.4-2.2-0.5-2.9-2c-0.7-1.5-0.6-3.1,0.3-3.5
	C367.5,77.1,368.8,78,369.5,79.6z"/>
<path class="st14" d="M371.3,97.4c0,0-11.4-0.5-14.4-1.9c-1.8-0.8-16.5-12.7-16.5-12.7l0.2-31.7l-10.3-0.8c0,0-5.4,35.1-3.5,38.9
	c1.9,4,23.4,20.3,27.7,27.4c2.5,4.1,7.7,59.6,8.4,60.1c5.6,2.9,22.8,5.8,22.4,4C374.1,132.1,371.3,97.4,371.3,97.4z"/>
<path class="st19" d="M376.2,83.2l6.7-2.1c0,0,0.6,2.6-2.3,3.6C377.1,85.9,376.2,83.2,376.2,83.2z"/>
<path class="st21" d="M660.5,206.7c0.9-0.1,1.3-1.3,0.9-2c-0.7-1.1-1.4-2.3-2.1-3.5c-1.5-2.5-1.7-2.6-1.5-2.9
	c0.3-0.7,1.6-0.4,2.1-0.2c1,0.4,2,1,3.1,1.1c2.2,0.3,3.7-1.4,2.8-3.5c-0.9-1.9-1.9-3.8-2.9-5.7c2.3,0.5,4.6,1,7,1.5
	c0.8,0.2,1.4-0.6,1.1-1.3c-0.7-1.7-2.9-6.7-3.6-8.4c-0.2-0.4-1.3-2.3-0.9-2.7c0.3-0.3,1.9,0.1,2.3,0.2c2,0.3,2.7,0.4,9.3,1.2
	c0.8,0.1,1.4-1,1-1.6c-4.6-6.4-3.8-7-5.4-7.9c-0.4-0.2-0.7,0-0.8,0.4c-0.1,1-0.1,1.2,1.6,4.3c0.4,0.8,0.9,1.6,1.4,2.3
	c-8-1.1-10-1.6-11.1,0.2c-0.7,1.2-0.4,1.6,3.8,11.1c-2.4-0.6-4.8-1.1-7.3-1.6c-0.9-0.2-1.6,0.7-1.2,1.5c3.2,6.9,3.6,6.9,3.7,7.6
	c0,0,0.4,0.1-0.2,0.1c-1.1-0.1-3-1.6-5-1.4c-1.8,0.2-3.5,1.7-3.1,3.6c0.2,1.1,0.7,1.5,2.8,5.3c-2.1,0.4-4.1,1.1-6.2,2
	c-0.9,0.4-1.4,0.8-2,1.6c-0.5,0.7,0.1,1.8,0.9,1.7C653.1,209.6,654.1,207.7,660.5,206.7z"/>
<path class="st15" d="M702.4,225.6c-0.3-2-0.4-3.9-0.4-6c0-0.4-0.1-1.1,0.3-1.4c1-0.6,2.4,1.1,6.1,1.9c1.6,0.4,4.9,1.2,5.6-0.9
	c0.4-1.1,0.1-2.5,0.1-3.7c0-0.9,0-1.8,0-2.6c6,1.7,5.7,2.1,7.1,1.5c0.4-0.2,0.5-0.7,0.3-1c-0.8-1.2-0.6-0.9-8.2-3.1
	c-0.7-0.2-1.5,0.3-1.5,1.1c0,1.2,0.3,6.6,0.2,7.2c-0.1,0-0.4,0-0.4,0c-2.5-0.1-4.7-1-6.9-1.9c-1.9-0.8-4.4-0.8-5,1.6
	c-0.3,1.3-0.2,4,0,6.1c-3.7-1.2-7.4-2.4-11-3.5c-0.7-0.2-1.8,0.3-1.7,1.2c0.2,2.4,0.2,4.8,0.3,7.2c-2.2-0.7-4.2-1.8-6.1-3.1
	c-1.4-1-3.1,0.9,0.5,3.2c2,1.3,4.2,2.3,6.5,2.9c0.8,0.2,1.7-0.3,1.7-1.2c0-2.4-0.1-4.8-0.2-7.1c3.7,1.1,7.4,2.2,11.1,3.3
	C701.8,227.3,702.5,226.5,702.4,225.6z"/>
<path class="st23" d="M715.2,273.9c0,0.7,0.5,1.2,1.2,1.3c3.4,0.6,6.7,0.9,10.1,0.3c1.8-0.3,1.1-2.9-0.6-2.7
	c-2.7,0.3-5.5,0.4-8.2,0.1c0.1-2,0.3-4,0.8-6c0.2-0.7-0.3-1.8-1.2-1.7c-2.2,0.1-10.4,0.5-10.5,0.6c0,0,0-0.1,0-0.2
	c-0.2-0.9,0.5-3.9,0.4-5.2c-0.1-1.5-2.1-2.1-3.3-2.2c-2.5-0.2-5.3,1.6-7.7,0.6c-2.3-0.9,0.3-4.6-1.6-7.5c-1.5-2.2-4-1.5-7.9-0.8
	c-1,0.2-1.9,0.4-2.4,1.3c-0.1,0.2-0.1,0.6,0.1,0.8c1.2,1.1,2.6,0.6,6.2,0c0.5-0.1,1.2-0.3,1.6,0c1.4,1.1-0.6,4.2,1,6.9
	c1.3,2,3.8,2.4,5.9,2.2c1.7-0.2,3.7-1.2,5.4-0.6c-0.1,1.5-0.2,2.9-0.2,4.4c0,1.6,0.8,2.7,2.4,2.8c1.8,0.1,3.6-0.1,5.4-0.2
	c1.2-0.1,2.4-0.1,3.6-0.2C715.3,269.8,715.1,271.8,715.2,273.9z"/>
<path class="st23" d="M617.9,181.6c-9.4-7.7-14.3-0.8-11.5,2.4c1.2,1.4,3.2,1.5,4.3-0.1c0.5-0.7-0.2-1.9-1.1-1.6
	c-0.7,0.2-0.9-0.6-0.1-0.9c1.1-0.4,2.3,0.3,3.2,0.8c2.1,1.1,4.9,2.5,5.2,5.2c0.5,4-3.5,8.1-9.5,5.8c-8.6-3.3-8.2-17.4,0.9-19.7
	c5-1.3,10.3,0.8,13.3,4.9c0.6,0.8,1.7-0.1,1.3-0.9c-2.4-6.1-10.2-8.4-16-6.3c-6,2.1-9,8.5-8.1,14.6c0.9,6.4,6.4,11.8,13.2,11.1
	C620.3,196.1,624.5,187,617.9,181.6z"/>
<path class="st2" d="M710.9,295.3c-1.5-1.1-4.7-1.7-5.8,0.4c-0.5,1-0.2,2.2,0.9,2.5c1.1,0.4,2.1-0.2,3,0.8c0.7,0.9,0.3,2.1-0.4,2.9
	c-2,2.4-6.4,1.7-8.8,0.3c-3.9-2.1-4.6-7.7-0.4-10.3c1.3-0.8,2.8-1,4.3-1.4c0.8-0.2,1.2-1.5,0.3-1.9c-3.3-1.7-7.4,0.5-9.4,3.3
	c-2.1,3-2,7.2-0.1,10.2c2.1,3.4,6.5,5.1,10.3,5C713.1,307.1,715.9,298.8,710.9,295.3z"/>
<path class="st24" d="M551.6,544.2c-0.2,0.9-0.4,1.1-0.7,1.7c-2,3.7-6.7,9-6.7,9l-3.6-8.2c0,0,0.6-2.6,1.6-6.3
	C545.6,541.3,549,541.8,551.6,544.2z"/>
<path class="st18" d="M530.7,537c0,0,20.3,8.7,21,8.6c0.4-0.1,8.3-13.3,8.4-25.8c0-5.7-5.9-12.7-12.6-11.3c-3.4,0.7-3.3,1.6-8.3,8.8
	C534.3,524.6,530.7,537,530.7,537z"/>
<path class="st13" d="M513.4,693.7c0,0,0.5,8,0.5,8c0.2,1,0.9,3.5,0.9,4.4c0,3.5-16.4-2.9-12.7-4.5c0.3-0.1,2.1-1.2,2.2-2.4
	c0.2-1.8,0.6-5.5,0.6-5.5L513.4,693.7z"/>
<path class="st2" d="M502,701.6c0,0,3.9,1.1,5.8,1.3s4.6-2,6-1.4c1.5,0.7,1.5,6.6,1.5,6.6s-20.7,1.7-26.5-0.1
	C486.5,707.4,494.2,704.1,502,701.6z"/>
<path class="st13" d="M547,693.7c0,0,0.5,8,0.5,8c0.2,1,0.9,3.5,0.9,4.4c0,3.5-16.4-2.9-12.7-4.5c0.3-0.1,2.6-2,2.7-3.1
	c0.2-1.8,0.1-4.7,0.1-4.7L547,693.7z"/>
<path class="st2" d="M535.6,701.6c0,0,3.9,1.1,5.8,1.3c2,0.3,4.6-2,6-1.4c1.5,0.7,1.6,6.6,1.6,6.6s-20.8,2-26.6-0.1
	C520.2,707.3,527.7,704.1,535.6,701.6z"/>
<path class="st13" d="M545.4,495.6l1.9,11.8c0,0-7.1,5.7-11.2,4.5c-3.5-1-1.1-5.5-1.1-5.5s1.8-6.3,1.3-9.6
	C535.7,493.4,545.4,495.6,545.4,495.6z"/>
<path class="st25" d="M544.1,499.1c-1.8,0.8-5.3,2-8,2.3c0.3-1.6,0.4-3.4,0.2-4.7c-0.3-1.5,1.7-1.9,3.8-1.8c2.8,0.2,5.3,0.7,5.3,0.7
	l0.4,2.3C545.3,498.4,544.7,498.8,544.1,499.1z"/>
<path class="st13" d="M554.4,482c0.3,0-2.8,13.1-7.6,15.4c-4.8,2.3-11.9,1.1-13.3-2.5c-1.5-3.9,3.9-17.3,10.7-19
	C550.9,474.2,554.4,482,554.4,482z"/>
<path class="st26" d="M548.8,469.9c3.8,2.2,5.6,5.5,6.2,6.8c1.8,0.9,4,2.7,5,7.7c1.3,6.1-3.3,10.8-8.1,12.2
	c-4.8,1.4-5.6,4.6-5.6,4.6l-0.5-3.4c0,0,1.1-3,2.7-4.5c1.6-1.5-0.8-3.7-1-5.5c-0.2-1.4,0.8-4,0.6-6.3c0,0-2.7-4.1-5.3-5.1
	C538.3,474.8,543.9,467.1,548.8,469.9z"/>
<path class="st13" d="M546.8,490.1c-0.6,1.5-0.4,3,0.6,3.4c0.9,0.3,2.2-0.6,2.8-2.1c0.6-1.5,0.4-3-0.6-3.4
	C548.7,487.6,547.4,488.6,546.8,490.1z"/>
<path class="st24" d="M529,548.9l-27.9-4.5c0,0,3.2-8,4.3-8s21.1,8.7,21.1,8.7l1.6,3.2L529,548.9z"/>
<path class="st11" d="M543.2,568c0,0,2.8,13.4,1.6,23.6c-1.1,10.2-1.2,46.4-1.2,46.4L548,696l-10.3,0.2c0,0-12.2-57.9-11.9-56.4
	c0.2,1.5-4.1-40.8-4.1-40.8l14.5-32.3L543.2,568z"/>
<path class="st26" d="M540.5,567.4c0,0,1.8,12.1-0.5,17.4c-2.3,5.3-19.4,57.4-19.7,61.6c-0.2,4.2-5.9,51.2-5.9,51.2l-11.9-0.3
	l-2.6-52.2l5.4-65.6l5.2-16.6L540.5,567.4z"/>
<path class="st13" d="M547.3,507.3c0,0-2.9,1.9-5.7,1.7c-2.7-0.2-6.6-2.8-6.6-2.8l0.5-1.8c0,0,7.1-1,7.3-0.9
	C543,503.6,547.3,507.3,547.3,507.3z"/>
<path class="st24" d="M515.9,536c0,0-10.5,10-15.3,8.3c-4.8-1.7-6.7-7.5,4.9-16C515.9,520.6,515.9,536,515.9,536z"/>
<path class="st3" d="M508.8,548.3c1.6-8.5,12.9-35,13.8-39.9c0.4-2.4,6.6-2.4,12.4-2.1c6.2,0.3,12.3,1.1,12.3,1.1s5.5,0.9,7.9,3.1
	c2.4,2.2,3,8.5-0.4,20.3c-2.7,9.3-6.1,14.4-7.8,21.2c-0.3,2.3-0.6,4.5-1,7.1c-0.6,10.1,0,23.6,0,23.6s-29.7,6.2-40.8-3.2
	C505.2,579.5,507.2,557,508.8,548.3z"/>
<path class="st18" d="M501.2,529.9c0,0,11.7,9.6,12.3,9.6c0.4,0,16.6-11.9,20.4-21.7c2.1-5.4-2.3-11.5-7.2-11.4
	c-3.4,0-5,0.9-11.8,6.6C508.1,518.8,501.2,529.9,501.2,529.9z"/>
<path class="st19" d="M534.3,489.3l4.4,2.4c0,0-1.1,1.8-3.1,0.8C533.2,491.3,534.3,489.3,534.3,489.3z"/>
<path class="st13" d="M257.4,540.5c-0.3-1,4.4-1.8,4.7-2.8c0.3-1-6-1.1-6.2-1.9c-0.4-1.6,6.9-0.3,6.7-1.1c-0.1-0.8-7.6-2.4-6.8-3.7
	c0.8-1.3,7.6,2.5,7.8,1.7c0.2-0.9-6.6-3-6.5-4.9c0.1-1,11.2,5.1,12.4,4.6c1.3-0.6-1.4-5.4-0.4-6.1c1-0.7,4,9.8,4.7,10.1
	c0.7,0.3,15.7,8.9,21,10.3c0.6-1.8,8.3-12.8,8.9-14.5c3,2.1,6.1,2.4,9.1,4.4c-2.2,5.6-12.5,21.2-14.1,21.9
	c-4.7,2.1-23.1-13.1-26.8-15.7c-3.7-2.6-5.8-1.8-8.2-2.6C261.3,539.2,257.8,541.5,257.4,540.5z"/>
<path class="st11" d="M359.2,499.9c-2.7-7.3-9.9-11.7-17.4-10.4c-2.3-3.7-6.1-6.4-10.3-7.3c-8.2-1.8-19.3,1.5-19,10.2
	c-3.2,5.8-3.3,14.2,1.6,18.6c-1.7,7.8,5.7,15.4,15.2,15.2c3.3,5.5,9.7,9,16,8.3c1.5-0.2,3.8-0.6,4.2-0.5c-0.5-0.1,10.1,8,19.1-4.5
	C377.8,516.7,371.4,501.3,359.2,499.9z"/>
<path class="st13" d="M333.5,570.5c0.3,0.1-3.6,5.1-7.4,8.6c-3,3.8-5.9,8.3-6.9,13.3c-1.5,7.5-0.3,44.6-1.6,47.2
	c-11.2,10.9-19.3,38.4-21.5,46.7c-0.4,1.6-1.3,3.1-2.6,4.2l0.5,9.5l5.6,5.1c0,0-1.2-7.7,1.2-13.4c0,0,28.1-42.6,29.8-45.9
	c3.2-9.3,14.8-56.8,14.8-56.8l2.7-10.9C348.1,578.1,333.5,570.5,333.5,570.5z"/>
<path class="st17" d="M287.4,693.6c0,0,3.5,5.4,3.8,7.5c0.3,2.1,2.2,6.9,4.2,7.2c0.5,0.1,8.5,0.7,8.5-0.3c0-0.8-3-1.9-4.3-2.8
	c-2.3-1.6-6-14.8-6-14.8S287.6,691.9,287.4,693.6z"/>
<path class="st20" d="M334.7,512.6c0,0,11.8-21.2,14.6-25.7c2.9-4.5,10.3-22.4,10.6-23.1c0.3-0.7-5.1-9.2-3.9-9.5
	c1.2-0.3,2.5,4.5,3.8,3.9c1.3-0.6,5-12,5.8-11.4c1.4,1.1-2,7.1-1.3,7.5c0.7,0.4,2.9-6.6,4.4-6.4c1.4,0.2-2.7,6.4-2.3,7
	c0.4,0.5,4.7-5.3,5.5-4.1c0.4,0.7-4,5.1-3.1,5.5c0.8,0.4,4.8-2.5,5.2-1.6c0.4,0.8-3.6,2-4.8,4.2c-1.2,2.2-3.3,3.2-4.1,7.3
	c-0.9,4.1-2.1,19.1-6.5,26.5c-4.4,7.5-14,24-14,24L334.7,512.6z"/>
<path class="st13" d="M357.5,586.9c0,0,18.1,38.8,18.2,45.6c0.1,5.8-3.2,38.6-2.3,65.9c0,1,1.3,2.3,3.1,3.1c1,0.5,6,2.7,6,2.7
	l0.7,1.8l-17-1.2l-0.2-4.6c0,0-6.8-40.8-6.1-52.4c0.1-1.8,1-12.7,1-12.7l-20.4-39.5l12.9-16.9L357.5,586.9z"/>
<path class="st15" d="M316,633.4C316,633.4,316,633.4,316,633.4L316,633.4z"/>
<path class="st2" d="M341.9,524c0.5-3,5.1-10.4,5.8-12.3c0,0-5.3-6.8-9.7-6.3c0,0-5.8,9.7-9.2,10c-3.3,0.3-15,0.8-17,2.1
	c-2,1.2-10.7,14.6-10.7,14.6s7.8,8,10.9,7.9c0,0,1.7-3.3,2.3-4c0.5,1.5,7.7,25.1,7.7,30.4l0.1,0c6.8,5.5,16.7,4.2,21.9-2.8
	c0,0-0.6-7.3-0.3-14.1C344.4,539,346.6,533.4,341.9,524z"/>
<path class="st14" d="M379.7,615.1l-35.6-51.4c-2.2,0.9-4.3,1.7-6.6,2.1c-5.1,1-10.2,0.8-15.4,0.7c0,0.2,0,0.4,0,0.5
	c-0.6,4.2-6.2,10.8-7.4,23.7c-1.3,14.6-0.5,39.9-0.1,41.6C338.3,629.4,373,622.1,379.7,615.1z"/>
<path class="st13" d="M322.9,506.9c0,0,1.3,6.7,1,9.4c-0.2,2.7,1,11.2,6.4,11.3c5.4,0,1-10.9,0.5-13.5c-0.5-2.6-0.6-10.7-0.6-10.7
	L322.9,506.9z"/>
<path class="st15" d="M330.3,507.5c-0.1-2.2-0.1-4-0.1-4l-7.2,3.5c0,0,0.3,1.4,0.5,3.1C326.6,510.7,328.9,509.5,330.3,507.5z"/>
<path class="st13" d="M320.3,488.3c0,0-2.8,1.6-3.8,5.1c-1,3.5,0.1,12.5,7.4,14.7c7.2,2.2,10.3-5,8.9-10.6
	C331.2,492,327.9,484.9,320.3,488.3z"/>
<path class="st13" d="M333.6,495.4c-0.1,1.5-0.9,2.6-1.8,2.6c-0.8-0.1-1.4-1.4-1.3-2.9c0.1-1.5,0.9-2.6,1.8-2.6
	C333.1,492.6,333.7,493.9,333.6,495.4z"/>
<path class="st13" d="M318.5,501.2c0.8,1.3,0.8,2.9,0,3.5c-0.9,0.6-2.2,0-3.1-1.3c-0.8-1.3-0.8-2.9,0-3.5
	C316.3,499.3,317.7,499.9,318.5,501.2z"/>
<path class="st17" d="M366.2,707.9h21.5c0.8-0.1,1-0.7,0.7-1.1c-0.6-0.8-3.1-1.4-5.9-2.7c-4.9,0.5-15.7-2.9-16.5-4
	C365.6,702.4,365.8,707.8,366.2,707.9z"/>
<path class="st19" d="M323.9,502.7l4.6-1.4c0,0,0.4,1.8-1.6,2.5C324.5,504.6,323.9,502.7,323.9,502.7z"/>
<path class="st2" d="M206.9,396.3c0.6,0,2.2,0.6,4.6,5.1c3.1,5.8,7.6,23.3,7.6,23.3l-13.4,5l-1.7-3.7l-2.8-28.2
	C201.2,397.9,206.8,396.3,206.9,396.3z"/>
<path class="st4" d="M189.2,393.8c3.8,0,13.3,1.1,17.7,2.5c0,0,3.2,27.8-2.9,48.9c-1.4,4.7,1.1,19.6,1.1,19.6l-39.7-0.5
	c0,0,4.7-35.9,2.9-41.7c-1.8-5.8-1.8-26-1.8-26s0.3,0,8.9-1.5C179.5,394.2,185.1,393.8,189.2,393.8z"/>
<path class="st13" d="M184.6,516.3c0,0,0.9,10.1,2.5,12.9c1.6,2.8-0.1,7.6-0.2,8.2c-0.1,0.7-3.4,1.6-8.7,1c-5.3-0.6-5.2-1.8-4.8-3.7
	c0.4-2,3.2-4.5,3.4-6.4c0.2-1.9-1.6-8.6-1.6-8.6L184.6,516.3z"/>
<path class="st17" d="M200.7,456.4c0,0,27.4-1.5,33.5,2.2c6.1,3.7-4.4,21.9-4.4,21.9s-19.1-0.9-56.4,1.3c-8.9,0.5-9.6-23.1-8-25
	C167.1,454.8,200.7,456.4,200.7,456.4z"/>
<path class="st26" d="M177.6,539.3c-5.4-0.6-4.8-3.2-4.3-5.3c0.3-1.3,1.8-2.8,2.8-4.2c0.5,0.4,1.3,1.1,3.6,1.8
	c2.4,0.7,5.8-0.7,7.9-1.6c0.8,2.8,0.8,6.5,0.7,7C188.2,537.7,183,539.9,177.6,539.3z"/>
<path class="st18" d="M180.6,476c1.1,8.3,6.5,49.5,6.5,49.5l-12.6,1.6c0,0-15.5-53.8-14.7-62.1c0.8-8.2,6.6-8.9,6.6-8.9
	S177.7,454.1,180.6,476z"/>
<path class="st13" d="M166.1,399.6c3.7-1.4,5.5,32.1,6,45.8c6.6,0.6,18,0,20.9-0.2c1.3-0.1,4.4-1.2,5.8-1.4c1.4-0.2,2.6-0.3,3.3-0.2
	c0.2,0,7.1,2.8,7.7,3.5c0.7,0.8,2.7,2.7,2.4,3.5s-3.8-2.3-3.8-2.3l-1.7-0.9c2.1,2.1,6.1,4.7,5.5,5.7c-0.6,1-4.2-1.8-6.7-3.6
	c2.2,2,4.9,5.6,4.3,6.1c-0.6,0.5-3.7-3.6-7-4.8c-1.2-0.4-2.5,0.8-3.4,0.9c-0.7,0.1-1.8,0.3-2.5,0.1l-3.6-1c-1.2,0.1-1.3,0.8-2.5,1.1
	c-1.4,0.3-3.8,0.6-5.6,1.1c-10.6,2.6-14.1,3.8-17.3,3.8C157.9,456.7,157.4,402.9,166.1,399.6z"/>
<path class="st2" d="M159.1,431c-0.7-14.1-0.6-31.5,7.3-34.5c3.1-1.2,8.6,5.9,7.6,34.7C169.8,431.6,163.6,431.9,159.1,431z"/>
<path class="st13" d="M221.4,525c0,0-1.1,3.5,0.9,5.8c2,2.3,10.1,4.6,11.2,5.9c1.1,1.3,1,2.3,1,2.3l-22.9-0.6l0.2-6.9l1.1-5
	L221.4,525z"/>
<path class="st26" d="M223.7,532c0,0-5.9,2.4-8.7,1c-2.8-1.4-2.8-1.8-3.6-1.3c-0.8,0.5-1.1,7-1.1,7l25.8,0.8c1.8,0,2.7-1.4,1.2-2.5
	c-1-0.8-2.2-1.3-2.8-1.7C232.5,534.2,223.7,532,223.7,532z"/>
<path class="st18" d="M220.5,462.9c1.8-3.7,5.8-8.6,12.9-5.7c6.8,2.8,8.6,9.6,6.4,16.7c-2.1,7-16.2,48.3-16.7,53.9l-11.2,0.1
	c0,0,2-32.7,2.5-40.6C215,479.8,217.5,469.4,220.5,462.9z"/>
<path class="st12" d="M238.7,424.9h-37.5c-1,0-1.9,0.6-2.3,1.5l-11.5,28.2h-20.7c-0.6,0-1,0.5-1,1c0,0.6,0.5,1,1,1h58.8
	c1.6,0,3.1-1,3.7-2.4l11.6-26C241.7,426.7,240.5,424.9,238.7,424.9z"/>
<path class="st19" d="M218.5,441.4c-0.3,1.3-1.4,2.1-2.5,1.9c-1.1-0.2-1.8-1.4-1.5-2.7c0.3-1.3,1.4-2.1,2.5-1.9
	C218.1,438.9,218.8,440.1,218.5,441.4z"/>
<path class="st27" d="M198.1,359.8c-1.1-0.4-2.2-0.8-3.3-1.3c-1.2-0.6-2.8-1.3-3.8-1.4c-2.1-0.3-5.7-0.1-7.7,2
	c-2.5,2.7-6.9,0.5-6,14.5c1,15.9,9.8,14.2,10.1,13.9c0.2-0.3,7.9-10.2,7.9-10.2s2.7,5.9,2.7,5.6C198,382.8,211.7,364.4,198.1,359.8z
	"/>
<path class="st13" d="M191.4,388.7l0.8,5.7c0,0,1.7,8.2-0.5,9.8c-2.2,1.6-9.4-10-9.4-10l0.8-14.4L191.4,388.7z"/>
<path class="st15" d="M182.9,384.4c1.8,4.9,6.1,7.9,9.2,9.1l-0.6-4.8l-8.3-8.9L182.9,384.4z"/>
<path class="st13" d="M191,364.1c4.7-0.8,8.8,3,8.7,7.7c0,2-0.2,4.6-0.6,7.3c-1,6.6-5.5,12.3-8.5,11.8c-3-0.5-10.4-6.2-9.1-15.5
	C182.3,369.6,186.1,364.9,191,364.1z"/>
<path class="st13" d="M183.6,376.5c-0.2,1.4-1.4,2.4-2.6,2.2c-1.2-0.2-1.9-1.5-1.7-3c0.3-1.4,1.4-2.4,2.6-2.2
	C183.1,373.7,183.8,375,183.6,376.5z"/>
<path class="st27" d="M181.9,373.5c0,0,3.6,0.9,4.9-1.4c1.3-2.3,6.1-7.3,12.1-5.2c6,2.1-5.3-5-5.8-5c-0.5,0-6.3,0-6.3,0
	s-4.5,3.7-4.6,4.1c-0.2,0.4-1.4,4.8-1.4,4.8L181.9,373.5z"/>
<path class="st19" d="M188.4,383.1l6.5,1.2c0,0-0.6,2.5-3.5,2C187.9,385.8,188.4,383.1,188.4,383.1z"/>
<path class="st12" d="M752.7,707.5h-679c-1.3,0-2.4,1.1-2.4,2.4s1.1,2.4,2.4,2.4h679c1.3,0,2.4-1.1,2.4-2.4S754,707.5,752.7,707.5z"
	/>
<path class="st13" d="M613.7,532.7c-0.3-1,4.4-1.8,4.7-2.8c0.3-1-6-1.1-6.2-1.9c-0.4-1.6,6.9-0.3,6.7-1.1c-0.1-0.8-7.6-2.4-6.8-3.7
	c0.8-1.3,7.6,2.5,7.8,1.7c0.2-0.9-6.6-3-6.5-4.9c0.1-1,11.2,5.1,12.4,4.6c1.3-0.6-1.4-5.4-0.4-6.1c1-0.7,4,9.8,4.7,10.1
	c0.7,0.3,15.7,8.9,21,10.3c0.6-1.8,2-4.2,2.6-5.9c3,2.1,5.2,3.2,8.3,5.1c-2.2,5.6-5.4,11.7-7,12.4c-4.7,2.1-23.1-13.1-26.8-15.7
	c-3.7-2.6-5.8-1.8-8.2-2.6C617.6,531.4,614,533.6,613.7,532.7z"/>
<path class="st28" d="M669.1,522c1.4,5.8-6.1,18.9-6.1,18.9s-10.8-5.1-12.7-7.3c0,0,7.3-12.6,7.8-13.4c2.2-3.5,5.1-3.5,7-3.3
	C666.6,517.1,669.1,522,669.1,522z"/>
</svg>
