<svg width="648" height="431" viewBox="0 0 648 431" fill="none" xmlns="http://www.w3.org/2000/svg">
<g id="Deal with customer">
<path id="Rectangle" fill-rule="evenodd" clip-rule="evenodd" d="M99 409H590L530 431H39L99 409Z" fill="#B9CFFA"/>
<g id="woman">
<path id="Path" fill-rule="evenodd" clip-rule="evenodd" d="M439.594 26C432.41 26 426.024 28.4113 421.973 32.1496C409.602 31.9003 410.237 49.0001 420.011 55.4352C419.944 56.1882 431.044 76.6308 443.289 76.6308C455.535 76.6308 465.462 65.915 465.462 52.6963C465.462 47.5754 463.972 42.8301 461.435 38.938C459.616 31.5874 450.529 26 439.594 26Z" fill="#111B2A"/>
<path id="Path_2" fill-rule="evenodd" clip-rule="evenodd" d="M421.167 36.9919C421.167 36.9919 416.561 41.1847 416.561 50.0965C416.561 59.0084 415.296 61.67 415.296 61.67C415.296 61.67 412.52 64.3051 413.391 65.4677C414.262 66.6303 415.894 66.7859 415.894 66.7859L416.541 71.9206C417.296 77.911 422.544 82.3054 428.574 81.997L430.231 102.251L448.49 101.496L446.142 76.8602C446.142 76.8602 443.202 70.5862 443.202 65.4677L446.071 64.9402C449.007 64.4004 450.689 61.2838 449.53 58.5335C448.267 55.5339 444.399 54.7149 442.027 56.9447L439.6 59.2274C439.6 59.2274 429.496 57.7186 424.698 50.6863C419.899 43.6541 421.167 36.9919 421.167 36.9919Z" fill="white" stroke="#111B2A"/>
<path id="Oval" fill-rule="evenodd" clip-rule="evenodd" d="M473.314 51.7757C466.426 51.7757 460.842 46.0056 460.842 38.8879C460.842 31.7701 466.426 26 473.314 26C480.202 26 485.786 31.7701 485.786 38.8879C485.786 46.0056 480.202 51.7757 473.314 51.7757Z" fill="#111B2A"/>
<path id="Path 99" fill-rule="evenodd" clip-rule="evenodd" d="M416.222 149.196L408.997 160.816L347.609 170.913C347.609 170.913 341.757 166.41 337.74 166.13L338.513 170.28L323.99 171.946C323.99 171.946 326.054 175.478 328.56 175.653C329.169 179.582 334.961 183.214 339.702 183.545C344.443 183.875 350.552 180.813 350.552 180.813L403.942 181.207C407.133 181.231 410.296 180.594 413.23 179.339C418.231 177.198 422.32 173.366 424.78 168.514L430.615 157.006L416.222 149.196Z" fill="white" stroke="#111B2A"/>
<path id="Path 2" fill-rule="evenodd" clip-rule="evenodd" d="M441.441 95.0664C441.441 95.0664 453.255 94.7966 460.842 102.251C462.943 104.315 465.462 116.975 463.77 130.659C462.078 144.343 458.785 164.677 458.785 164.677C458.785 164.677 462.788 172.568 458.785 177.611H413.183V142C413.183 142 402.925 137.293 405.927 126.53C408.93 115.766 430.382 95.0664 430.382 95.0664H441.441Z" fill="white" stroke="#111B2A"/>
<g id="Group 2">
<path id="Path 15" fill-rule="evenodd" clip-rule="evenodd" d="M442.283 394.765L443.376 406.217C443.376 406.217 439.861 411.613 434.428 411.613C428.994 411.613 426.869 406.217 426.869 406.217L425.479 393.117L442.283 394.765Z" fill="white" stroke="#111B2A"/>
<path id="Path 16" fill-rule="evenodd" clip-rule="evenodd" d="M443.376 404.923L445.428 417.252H409.55L426.721 404.923C426.721 404.923 432.053 410.174 436.34 409.326C440.627 408.477 443.376 404.923 443.376 404.923Z" fill="#111B2A"/>
</g>
<g id="Group 2 Copy">
<path id="Path 15_2" fill-rule="evenodd" clip-rule="evenodd" d="M495.834 387.094L499.475 398.006C499.475 398.006 497.264 404.055 491.97 405.277C486.676 406.499 483.391 401.72 483.391 401.72L479.09 389.267L495.834 387.094Z" fill="white" stroke="#111B2A"/>
<path id="Path 16_2" fill-rule="evenodd" clip-rule="evenodd" d="M499.185 396.745L503.957 408.297L479.069 416.848L469.493 417.267C469.493 417.267 470.55 413.85 476.288 412.503C479.242 409.143 482.956 400.492 482.956 400.492C482.956 400.492 489.332 404.409 493.319 402.618C497.305 400.827 499.185 396.745 499.185 396.745Z" fill="#111B2A"/>
</g>
<path id="Path 3" fill-rule="evenodd" clip-rule="evenodd" d="M459.272 176.69C459.272 176.69 473.958 196.766 476.225 226.913C478.492 257.06 479.696 294.354 479.696 294.354L504.076 387.297C504.076 387.297 493.379 394.037 479.696 394.037C479.696 394.037 456.362 330.75 452.204 316.304C448.045 301.857 444.42 288.389 444.42 288.389V304.788L452.204 394.037C452.204 394.037 437.741 397.335 425.48 394.037C425.48 394.037 412.299 290.506 410.17 265.613C408.042 240.721 413.219 174.453 413.219 174.453L459.272 176.69Z" fill="white" stroke="#111B2A"/>
<path id="Path 103" fill-rule="evenodd" clip-rule="evenodd" d="M452.548 104.483C452.548 104.483 460.494 111.192 459.348 128.028C458.876 134.959 458.099 144.415 457.348 153.142C456.098 167.67 447.126 180.377 433.906 186.529L411.73 196.848L412.679 183.36C412.679 183.36 427.723 178.268 434.786 163.158C441.849 148.047 445.502 113.142 445.502 113.142L452.548 104.483Z" fill="#111B2A"/>
<path id="Rectangle_2" d="M454.375 92.6356C454.375 91.931 453.804 91.3598 453.099 91.3598H434.027C430.468 91.3598 427.583 94.2448 427.583 97.8037H454.375V92.6356Z" fill="white" stroke="#111B2A"/>
<path id="Path 8" fill-rule="evenodd" clip-rule="evenodd" d="M428.984 86.0718L433.127 80.3131L428.655 81.5782L428.984 86.0718Z" fill="#111B2A"/>
<path id="Path 9" d="M445.205 58.5677C445.205 58.5677 446.293 61.6364 443.412 62.5749" stroke="#111B2A"/>
<path id="Path 11" d="M444.457 288.2V272.796L451.311 235.536C451.311 235.536 459.187 232.078 463.77 225.884" stroke="#111B2A"/>
<path id="Path 12" d="M421.956 174.453L416.545 262.475C416.332 265.932 416.392 269.399 416.724 272.846L428.414 394.352" stroke="#111B2A"/>
<path id="Path 13" d="M449.087 248.514C449.087 248.514 447.668 275.324 452.9 296.02C458.131 316.717 482.817 394.352 482.817 394.352" stroke="#111B2A"/>
<path id="Path 99_2" fill-rule="evenodd" clip-rule="evenodd" d="M431.751 145.281L429.421 158.753L375.526 189.719C375.526 189.719 369.18 189.037 365.35 190.277L359.258 191.899C358.648 192.061 358.224 192.613 358.224 193.243C358.224 194.053 358.912 194.692 359.72 194.631L367.525 194.043L354.397 202.103C353.731 202.512 353.532 203.389 353.958 204.045C354.333 204.622 355.073 204.839 355.7 204.554L364.335 200.629L357.622 206.985C357.138 207.443 357.103 208.202 357.542 208.703C357.937 209.154 358.597 209.258 359.111 208.951L367.525 203.923L362.347 210.073C361.9 210.604 362.029 211.407 362.618 211.772C363.034 212.03 363.568 211.992 363.944 211.679L371.9 205.05L368.968 210.044C368.629 210.622 368.807 211.365 369.372 211.727C369.818 212.012 370.393 211.987 370.808 211.658C372.458 210.345 376.623 206.979 378.401 205.05C380.643 202.617 382.208 199.855 382.208 199.855L432.48 179.557C435.396 178.38 438.044 176.623 440.262 174.393C444.124 170.512 446.494 165.393 446.954 159.937L448.033 147.15L431.751 145.281Z" fill="white" stroke="#111B2A" stroke-linejoin="round"/>
<path id="Path 4" fill-rule="evenodd" clip-rule="evenodd" d="M431.9 112.751C432.461 105.765 438.657 100.608 445.628 101.324C452.259 102.005 457.188 107.772 456.827 114.428L454.84 151.046L428.927 149.737L431.9 112.751Z" fill="white" stroke="#111B2A"/>
<path id="Path 20" fill-rule="evenodd" clip-rule="evenodd" d="M448.784 303.453L450.553 240.589L444.457 271.108V288.2L448.784 303.453Z" fill="#111B2A"/>
<path id="Oval_2" fill-rule="evenodd" clip-rule="evenodd" d="M420.192 57.2991C419.682 57.2991 419.268 56.6808 419.268 55.9182C419.268 55.1556 419.682 54.5374 420.192 54.5374C420.703 54.5374 421.116 55.1556 421.116 55.9182C421.116 56.6808 420.703 57.2991 420.192 57.2991Z" fill="#111B2A"/>
<path id="Path 21" d="M422.604 51.7757C422.604 51.7757 420.235 50.093 418.442 51.7757" stroke="#111B2A" stroke-width="2" stroke-linecap="round"/>
<path id="Path 22" d="M422.879 54.5374L443.412 57.2991" stroke="white"/>
<path id="Oval_3" fill-rule="evenodd" clip-rule="evenodd" d="M418.807 62.8224C416.51 62.8224 414.649 59.5252 414.649 55.4579C414.649 51.3906 416.51 48.0934 418.807 48.0934C421.103 48.0934 422.964 51.3906 422.964 55.4579C422.964 59.5252 421.103 62.8224 418.807 62.8224Z" stroke="#111B2A"/>
<path id="Path 23" fill-rule="evenodd" clip-rule="evenodd" d="M417.284 68.2924L417.775 71.9556C417.775 71.9556 420.946 71.2376 421.955 68.2924H417.284Z" fill="#111B2A"/>
</g>
<g id="man">
<g id="Group 2_2">
<path id="Path 15_3" fill-rule="evenodd" clip-rule="evenodd" d="M158.939 398.581L157.846 410.046C157.846 410.046 161.362 415.447 166.798 415.447C172.233 415.447 174.36 410.046 174.36 410.046L175.75 396.931L158.939 398.581Z" fill="white" stroke="#111B2A"/>
<path id="Path 16_3" fill-rule="evenodd" clip-rule="evenodd" d="M157.845 408.75L155.793 421.093H191.686L174.507 408.75C174.507 408.75 169.174 414.006 164.885 413.157C160.596 412.308 157.845 408.75 157.845 408.75Z" fill="#111B2A"/>
</g>
<g id="Group 2 Copy 2">
<path id="Path 15_4" fill-rule="evenodd" clip-rule="evenodd" d="M218.091 398.581L219.77 410.046C219.77 410.046 223.287 415.447 228.722 415.447C234.158 415.447 236.284 410.046 236.284 410.046L234.902 396.931L218.091 398.581Z" fill="white" stroke="#111B2A"/>
<path id="Path 16_4" fill-rule="evenodd" clip-rule="evenodd" d="M219.77 408.75L217.718 421.093H253.611L236.432 408.75C236.432 408.75 231.099 414.006 226.81 413.157C222.521 412.308 219.77 408.75 219.77 408.75Z" fill="#111B2A"/>
</g>
<path id="Path 99_3" fill-rule="evenodd" clip-rule="evenodd" d="M183.73 129.217L181.801 147.408L203.344 216.367C203.344 216.367 213.066 216.094 217.459 218.939L213.292 222.809L227.002 235.982C227.002 235.982 221.997 238.174 219.257 236.399C215.439 240.159 206.486 239.539 201.301 236.182C196.117 232.825 192.264 224.737 192.264 224.737L165.46 169.605C160.026 159.801 158.213 148.398 160.339 137.393L162.47 126.365L183.73 129.217Z" fill="white" stroke="#111B2A"/>
<path id="Path 37" fill-rule="evenodd" clip-rule="evenodd" d="M166.058 163.039C166.058 163.039 158.121 184.066 158.121 202.582C158.121 221.098 150.061 399.392 150.061 399.392H180.79L191.394 262.55L209.879 399.392H237.157L227.179 206.669L220.772 163.039H166.058Z" fill="white" stroke="#111B2A"/>
<g id="Group 37">
<g id="Group 10">
<path id="Path 32" fill-rule="evenodd" clip-rule="evenodd" d="M192.739 61.3517C190.441 61.1102 183.723 37.6504 181.653 29.9456C179.582 22.2409 182.053 12.7435 188.342 15.1682C189.106 6.77181 212.697 0.852838 224.492 10.5301C236.287 20.2074 227.075 30.1627 227.075 30.1627C227.075 30.1627 195.037 61.5933 192.739 61.3517Z" fill="#111B2A"/>
<path id="Path_3" fill-rule="evenodd" clip-rule="evenodd" d="M223.972 21.6104C223.972 21.6104 228.437 26.6044 227.437 36.1166C226.438 45.6287 227.494 48.6121 227.494 48.6121C227.494 48.6121 230.173 51.7373 229.109 52.8802C228.046 54.023 226.279 54.0052 226.279 54.0052L224.374 63.0092C223.526 67.018 219.786 69.7379 215.711 69.3096L210.987 68.813L206.939 90.2451L187.46 87.3824L192.739 61.3517C192.739 61.3517 196.593 54.9862 197.167 49.5229L194.152 48.6365C191.07 47.7307 189.62 44.2038 191.174 41.3925C192.863 38.3366 197.078 37.8956 199.363 40.5359L201.727 43.268C201.727 43.268 201.204 48.2437 203.344 48.1683C205.483 48.0929 205.211 38.6195 206.082 38.263C209.122 37.0177 215.338 37.2685 219.437 32.1036C223.536 26.9387 223.972 21.6104 223.972 21.6104Z" fill="white" stroke="#111B2A"/>
<path id="Path 8_2" fill-rule="evenodd" clip-rule="evenodd" d="M210.151 72.9766L206.568 66.1135C206.568 66.1135 209.503 68.1747 210.644 68.2946C211.784 68.4144 210.151 72.9766 210.151 72.9766Z" fill="#111B2A"/>
<path id="Path 9_2" d="M196.371 41.8755C196.371 41.8755 195.045 45.2844 197.465 46.6238" stroke="#111B2A"/>
<path id="Oval_4" fill-rule="evenodd" clip-rule="evenodd" d="M222.957 42.8166C223.465 42.87 223.941 42.2977 224.021 41.5384C224.101 40.7792 223.754 40.1204 223.246 40.067C222.739 40.0137 222.262 40.5859 222.183 41.3452C222.103 42.1045 222.45 42.7632 222.957 42.8166Z" fill="#111B2A"/>
<path id="Path 21_2" d="M220.782 36.9882C220.782 36.9882 223.574 35.5879 225.378 37.4713" stroke="#111B2A" stroke-width="2" stroke-linecap="round"/>
<path id="Path 23_2" fill-rule="evenodd" clip-rule="evenodd" d="M224.366 55.9377L223.498 59.553C223.498 59.553 220.453 58.5064 219.771 55.4547L224.366 55.9377Z" fill="#111B2A"/>
</g>
<path id="Path 4_2" fill-rule="evenodd" clip-rule="evenodd" d="M192.19 99.8386C193.46 92.9391 188.804 86.3456 181.877 85.2351C175.297 84.1801 169.047 88.4733 167.671 94.9934L160.082 130.934L185.463 136.366L192.19 99.8386Z" fill="white" stroke="#111B2A"/>
<path id="Path 2_2" fill-rule="evenodd" clip-rule="evenodd" d="M199.487 80.2057C199.487 80.2057 177.606 80.5551 170.074 89.269C162.543 97.9829 165.853 129.429 165.853 129.429C165.853 129.429 156.818 163.039 171.044 164.886L220.401 171.352L224.39 133.397L223.934 104.301C223.855 99.2974 222.073 94.4702 218.882 90.6158L211.29 81.4463L199.487 80.2057Z" fill="white" stroke="#111B2A"/>
<path id="Path 10" fill-rule="evenodd" clip-rule="evenodd" d="M199.091 110.733L209.56 158.014C211.332 166.017 216.179 173.003 223.056 177.463L221.607 168.8L223.048 151.676L199.091 110.733Z" fill="#111B2A"/>
<path id="Rectangle_3" d="M186.063 75.5233C186.142 74.7739 186.814 74.2303 187.563 74.309L207.368 76.3907C211.418 76.8163 214.356 80.444 213.93 84.4935L185.435 81.4986L186.063 75.5233Z" fill="white" stroke="#111B2A"/>
<path id="Path 99_4" fill-rule="evenodd" clip-rule="evenodd" d="M234.588 131.169L242.355 147.194L320.398 168.611C320.398 168.611 326.729 161.546 332.635 163.703L332.251 169.027L348.405 181.948C348.405 181.948 347.05 184.196 343.784 184.081C342.462 189.084 335.086 186.254 328.908 186.037C322.73 185.82 315.243 181.025 315.243 181.025L246.123 174.276C241.989 173.873 237.983 172.619 234.356 170.594C228.179 167.143 223.412 161.63 220.891 155.018L214.906 139.322L234.588 131.169Z" fill="white" stroke="#111B2A"/>
<g id="Path 101">
<path fill-rule="evenodd" clip-rule="evenodd" d="M344.694 168.428C339.647 164.692 332.043 163.915 332.043 163.915L321.237 171.322C320.264 171.99 319.926 173.27 320.444 174.331C320.971 175.413 322.223 175.931 323.361 175.538L330.206 173.176C330.206 173.176 330.905 174.469 334.349 176.255C337.794 178.04 342.933 176.986 342.933 176.986" fill="white"/>
<path d="M344.694 168.428C339.647 164.692 332.043 163.915 332.043 163.915L321.237 171.322C320.264 171.99 319.926 173.27 320.444 174.331V174.331C320.971 175.413 322.223 175.931 323.361 175.538L330.206 173.176C330.206 173.176 330.905 174.469 334.349 176.255C337.794 178.04 342.933 176.986 342.933 176.986" stroke="#111B2A"/>
</g>
<path id="Path 100" d="M242.704 146.91L236.079 150.691" stroke="#111B2A"/>
<path id="Path 4_3" fill-rule="evenodd" clip-rule="evenodd" d="M220.762 97.8248C217.733 91.5189 210.116 88.9303 203.872 92.0847C197.914 95.0945 195.376 102.257 198.109 108.346L213.152 141.864L236.882 131.385L220.762 97.8248Z" fill="white" stroke="#111B2A"/>
<path id="Path 102" d="M343.784 184.081L336.902 179.747" stroke="#111B2A"/>
<path id="Path 102 Copy" d="M340.345 186.568L332.641 182.222" stroke="#111B2A"/>
</g>
<path id="Path 39" d="M188.433 244.892L176.605 399.392" stroke="#111B2A"/>
<path id="Path 40" d="M212.873 169.882L233.317 399.392" stroke="#111B2A"/>
<path id="Path 41" fill-rule="evenodd" clip-rule="evenodd" d="M180.79 217.898L188.433 293.742L191.481 263.538L184.181 219.115L180.79 217.898Z" fill="#111B2A"/>
<path id="Path 38" d="M191.481 263.538L184.181 219.115C184.181 219.115 173.185 216.198 169.35 206.669" stroke="#111B2A"/>
</g>
<g id="plant">
<g id="Group 12 Copy">
<path id="Path 51" fill-rule="evenodd" clip-rule="evenodd" d="M355.091 365.569L361.681 332.576C362.527 328.343 361.77 323.948 359.559 320.247C357.454 316.724 353.539 314.699 349.45 315.021L348.822 315.071C344.849 315.383 341.468 318.1 340.301 321.918C339.053 325.998 339.327 330.392 341.07 334.282L355.091 365.569Z" fill="white" stroke="#111B2A"/>
<path id="Path 96" d="M352.2 329.375C352.2 329.375 356.684 381.929 358.194 395.03" stroke="#111B2A"/>
</g>
<g id="Group 12 Copy 2">
<path id="Path 51_2" fill-rule="evenodd" clip-rule="evenodd" d="M369.759 351.992L363.168 318.999C362.323 314.766 363.079 310.372 365.29 306.67C367.395 303.147 371.311 301.123 375.4 301.444L376.028 301.494C380.001 301.806 383.381 304.523 384.549 308.341C385.796 312.422 385.523 316.815 383.78 320.705L369.759 351.992Z" fill="white" stroke="#111B2A"/>
<path id="Path 98" d="M373.276 313.337C373.276 313.337 367.93 371.118 366.865 384.703" stroke="#111B2A"/>
</g>
<g id="Group 12 Copy 3">
<path id="Path 51_3" fill-rule="evenodd" clip-rule="evenodd" d="M356.702 334.57L343.396 303.668C341.689 299.704 341.515 295.248 342.908 291.168C344.234 287.284 347.644 284.49 351.71 283.954L352.334 283.872C356.286 283.352 360.157 285.306 362.093 288.798C364.161 292.53 364.808 296.884 363.911 301.052L356.702 334.57Z" fill="white" stroke="#111B2A"/>
<path id="Path 95" d="M353.566 295.645C353.566 295.645 359.97 372.361 361.233 393.638" stroke="#111B2A"/>
</g>
<g id="Group 12">
<path id="Path 51_4" fill-rule="evenodd" clip-rule="evenodd" d="M373.079 373.5L375.926 345.098C376.293 341.446 378.004 338.061 380.727 335.606C383.321 333.268 387.009 332.596 390.258 333.871L390.78 334.076C393.928 335.311 396 338.353 396 341.741C396 345.362 394.685 348.859 392.3 351.579L373.079 373.5Z" fill="white" stroke="#111B2A"/>
<path id="Path 98_2" d="M386.412 341C386.412 341 364.407 394.694 359.417 407.373" stroke="#111B2A"/>
</g>
<g id="Group 12 Copy 4">
<path id="Path 51_5" fill-rule="evenodd" clip-rule="evenodd" d="M350.921 373.5L348.074 345.098C347.707 341.446 345.996 338.061 343.273 335.606C340.679 333.268 336.991 332.596 333.742 333.871L333.22 334.076C330.072 335.311 328 338.353 328 341.741C328 345.362 329.315 348.859 331.7 351.579L350.921 373.5Z" fill="white" stroke="#111B2A"/>
<path id="Path 97" d="M337.897 342C337.897 342 356.624 384.081 358.218 395.496" stroke="#111B2A"/>
</g>
<g id="Group 11">
<path id="Rectangle_4" fill-rule="evenodd" clip-rule="evenodd" d="M342 380H381V420H342V380Z" fill="white" stroke="#111B2A"/>
<path id="Path 43" d="M342.198 385.611C345.53 382.65 348.613 383.134 351.609 387.111C356.945 394.194 363.575 397.018 369.052 393.347C368.65 393.616 374.4 389.485 375.542 389.012C377.059 388.382 378.546 388.475 380.889 389.413L381.11 388.85C378.634 387.858 376.991 387.756 375.314 388.451C374.098 388.956 368.242 393.162 368.72 392.842C363.569 396.295 357.255 393.604 352.087 386.744C348.889 382.498 345.407 381.953 341.802 385.156L342.198 385.611Z" fill="#111B2A"/>
<path id="Path 43 Copy" d="M342.198 391.671C345.53 388.711 348.613 389.194 351.609 393.171C356.418 399.555 362.331 401.016 368.198 397.083C370.198 395.742 371.276 396.244 372.791 398.596C372.985 398.897 373.699 400.06 373.852 400.301C375.899 403.528 377.803 404.895 381.042 404.431L380.958 403.831C378.006 404.254 376.291 403.023 374.357 399.974C374.208 399.738 373.492 398.574 373.294 398.266C371.62 395.666 370.206 395.009 367.866 396.578C362.28 400.323 356.715 398.948 352.087 392.804C348.889 388.559 345.407 388.013 341.802 391.216L342.198 391.671Z" fill="#111B2A"/>
<path id="Path 44" d="M342.175 403.417C347.563 399.52 353.085 399.856 358.821 404.445C364.746 409.185 372.186 409.931 381.101 406.698L380.899 406.128C372.166 409.294 364.944 408.57 359.194 403.97C353.254 399.218 347.438 398.864 341.825 402.925L342.175 403.417Z" fill="#111B2A"/>
<path id="Path 45" d="M381.036 390.948C376.559 390.403 374.528 391.95 375.196 395.501C375.845 398.96 377.802 400.728 381 400.728V400.122C378.1 400.122 376.383 398.57 375.785 395.388C375.205 392.3 376.847 391.049 380.964 391.549L381.036 390.948Z" fill="#111B2A"/>
<path id="Path 46" d="M342.126 393.988C344.874 392.701 346.07 392.96 346.07 394.656C346.07 396.523 344.675 398.365 341.84 400.168L342.16 400.681C345.151 398.778 346.67 396.773 346.67 394.656C346.67 392.367 344.953 391.996 341.874 393.438L342.126 393.988Z" fill="#111B2A"/>
<path id="Path 47" d="M342.209 408.095C345.929 404.422 349.245 404.575 352.334 408.551C357.978 415.817 362.486 418.966 367.007 417.779C368.913 417.278 369.353 416.326 369.103 414.568C369.092 414.483 369.08 414.409 369.059 414.27C368.9 413.239 368.905 412.848 369.157 412.492C369.502 412.005 370.381 411.733 372.027 411.733C376.526 411.733 379.426 412.74 380.751 414.715L381.248 414.375C379.786 412.197 376.704 411.127 372.027 411.127C370.207 411.127 369.155 411.452 368.669 412.139C368.288 412.677 368.282 413.166 368.466 414.364C368.487 414.5 368.498 414.572 368.51 414.654C368.72 416.137 368.423 416.78 366.856 417.192C362.652 418.296 358.312 415.265 352.806 408.177C349.493 403.912 345.761 403.741 341.79 407.662L342.209 408.095Z" fill="#111B2A"/>
<path id="Path 48" d="M352.374 380.154C356.787 387.741 366.384 389.274 381.086 384.82L380.914 384.24C366.445 388.622 357.131 387.135 352.891 379.846L352.374 380.154Z" fill="#111B2A"/>
<path id="Path 49" d="M342.145 411.695C347.201 408.863 352.277 411.636 357.434 420.158L357.946 419.842C352.643 411.078 347.259 408.137 341.854 411.165L342.145 411.695Z" fill="#111B2A"/>
</g>
</g>
<g id="list card">
<path id="Rectangle Copy 14" fill-rule="evenodd" clip-rule="evenodd" d="M26.0904 98H180L163.91 277H10L26.0904 98Z" fill="#111B2A"/>
<path id="Rectangle_5" fill-rule="evenodd" clip-rule="evenodd" d="M17.0904 87H171L154.91 266H1L17.0904 87Z" fill="white" stroke="#111B2A"/>
<g id="Group 4">
<path id="Rectangle_6" fill-rule="evenodd" clip-rule="evenodd" d="M34.5268 102H52.241L50.6752 119.5H32.9609L34.5268 102Z" fill="#629DF4"/>
<path id="Rectangle Copy 4" fill-rule="evenodd" clip-rule="evenodd" d="M32.9603 119.5H50.6746L49.1088 137H31.3945L32.9603 119.5Z" fill="#B1D1FF"/>
<path id="Rectangle Copy 6" fill-rule="evenodd" clip-rule="evenodd" d="M31.3949 137H49.1092L47.5434 154.5H29.8291L31.3949 137Z" fill="#629DF4"/>
<path id="Rectangle Copy 5" fill-rule="evenodd" clip-rule="evenodd" d="M29.8295 154.5H47.5438L45.978 172H28.2637L29.8295 154.5Z" fill="#B1D1FF"/>
<path id="Rectangle Copy 8" fill-rule="evenodd" clip-rule="evenodd" d="M28.2631 172H45.9774L44.4116 189.5H26.6973L28.2631 172Z" fill="#629DF4"/>
<path id="Rectangle Copy 7" fill-rule="evenodd" clip-rule="evenodd" d="M26.6977 189.5H44.4119L42.8461 207H25.1318L26.6977 189.5Z" fill="#B1D1FF"/>
<path id="Rectangle Copy 10" fill-rule="evenodd" clip-rule="evenodd" d="M25.1312 207H42.8455L41.2797 224.5H23.5654L25.1312 207Z" fill="#629DF4"/>
<path id="Rectangle Copy 9" fill-rule="evenodd" clip-rule="evenodd" d="M23.5658 224.5H41.2801L39.7143 242H22L23.5658 224.5Z" fill="#B1D1FF"/>
</g>
<path id="Rectangle_7" fill-rule="evenodd" clip-rule="evenodd" d="M63.1372 102H148L146.863 116H62L63.1372 102Z" fill="white" stroke="#111B2A"/>
<path id="Path 17 Copy 2" d="M62 123.5H84" stroke="#111B2A"/>
<path id="Path 17 Copy 4" d="M61 131.5H116" stroke="#111B2A"/>
<path id="Path 17 Copy 5" d="M59 160.5H103" stroke="#111B2A"/>
<path id="Path 17 Copy 6" d="M59 168.5H135" stroke="#111B2A"/>
<path id="Path 17 Copy 7" d="M56 195.5H132" stroke="#111B2A"/>
<path id="Path 17 Copy 8" d="M55 203.5H99" stroke="#111B2A"/>
<path id="Path 17 Copy 10" d="M53 232.5H129" stroke="#111B2A"/>
<path id="Path 17 Copy 9" d="M52 240.5H96" stroke="#111B2A"/>
<path id="Rectangle Copy 11" fill-rule="evenodd" clip-rule="evenodd" d="M61.1372 138H146L144.863 152H60L61.1372 138Z" fill="white" stroke="#111B2A"/>
<path id="Rectangle Copy 12" fill-rule="evenodd" clip-rule="evenodd" d="M58.1372 174H143L141.863 188H57L58.1372 174Z" fill="white" stroke="#111B2A"/>
<path id="Rectangle Copy 13" fill-rule="evenodd" clip-rule="evenodd" d="M55.1372 210H140L138.863 224H54L55.1372 210Z" fill="white" stroke="#111B2A"/>
</g>
<g id="deal icon">
<g id="Group 39">
<path id="Oval_5" fill-rule="evenodd" clip-rule="evenodd" d="M89.7696 111.714C109.115 111.714 126.322 96.4122 128.203 77.5368C130.083 58.6613 115.925 43.3597 96.5793 43.3597C77.2337 43.3597 60.0266 58.6613 58.1461 77.5368C56.2657 96.4122 70.424 111.714 89.7696 111.714Z" fill="#629DF4"/>
<path id="Oval Copy 12" d="M123.234 77.4872C121.619 93.6894 106.831 106.851 90.2043 106.851C73.6133 106.851 61.5054 93.7472 63.1154 77.5864C64.7295 61.3841 79.5176 48.2228 96.1447 48.2228C112.736 48.2228 124.844 61.3264 123.234 77.4872Z" stroke="white"/>
<path id="Path 104" fill-rule="evenodd" clip-rule="evenodd" d="M78.4369 66.1963L71.6455 72.5213L88.538 89.7811C90.1669 91.4455 93.0137 91.37 94.888 89.6128L142.644 44.838L136.735 38.8499L92.3767 80.4393L78.4369 66.1963Z" fill="#FFB16D"/>
</g>
</g>
<g id="list card copy">
<path id="Rectangle Copy 14_2" fill-rule="evenodd" clip-rule="evenodd" d="M494.09 100H648L631.91 279H478L494.09 100Z" fill="#111B2A"/>
<path id="Rectangle_8" fill-rule="evenodd" clip-rule="evenodd" d="M485.09 89H639L622.91 268H469L485.09 89Z" fill="white" stroke="#111B2A"/>
<g id="Group 4_2">
<path id="Rectangle_9" fill-rule="evenodd" clip-rule="evenodd" d="M502.527 104H520.241L518.675 121.5H500.961L502.527 104Z" fill="#629DF4"/>
<path id="Rectangle Copy 4_2" fill-rule="evenodd" clip-rule="evenodd" d="M500.96 121.5H518.675L517.109 139H499.395L500.96 121.5Z" fill="#B1D1FF"/>
<path id="Rectangle Copy 6_2" fill-rule="evenodd" clip-rule="evenodd" d="M499.395 139H517.109L515.543 156.5H497.829L499.395 139Z" fill="#629DF4"/>
<path id="Rectangle Copy 5_2" fill-rule="evenodd" clip-rule="evenodd" d="M497.829 156.5H515.544L513.978 174H496.264L497.829 156.5Z" fill="#B1D1FF"/>
<path id="Rectangle Copy 8_2" fill-rule="evenodd" clip-rule="evenodd" d="M496.263 174H513.977L512.412 191.5H494.697L496.263 174Z" fill="#629DF4"/>
<path id="Rectangle Copy 7_2" fill-rule="evenodd" clip-rule="evenodd" d="M494.698 191.5H512.412L510.846 209H493.132L494.698 191.5Z" fill="#B1D1FF"/>
<path id="Rectangle Copy 10_2" fill-rule="evenodd" clip-rule="evenodd" d="M493.131 209H510.846L509.28 226.5H491.565L493.131 209Z" fill="#629DF4"/>
<path id="Rectangle Copy 9_2" fill-rule="evenodd" clip-rule="evenodd" d="M491.566 226.5H509.28L507.714 244H490L491.566 226.5Z" fill="#B1D1FF"/>
</g>
<path id="Rectangle_10" fill-rule="evenodd" clip-rule="evenodd" d="M531.137 104H616L614.863 118H530L531.137 104Z" fill="white" stroke="#111B2A"/>
<path id="Path 17 Copy 2_2" d="M530 125.5H552" stroke="#111B2A"/>
<path id="Path 17 Copy 4_2" d="M529 133.5H584" stroke="#111B2A"/>
<path id="Path 17 Copy 5_2" d="M527 162.5H571" stroke="#111B2A"/>
<path id="Path 17 Copy 6_2" d="M527 170.5H603" stroke="#111B2A"/>
<path id="Path 17 Copy 7_2" d="M524 197.5H600" stroke="#111B2A"/>
<path id="Path 17 Copy 8_2" d="M523 205.5H567" stroke="#111B2A"/>
<path id="Path 17 Copy 10_2" d="M521 234.5H597" stroke="#111B2A"/>
<path id="Path 17 Copy 9_2" d="M520 242.5H564" stroke="#111B2A"/>
<path id="Rectangle Copy 11_2" fill-rule="evenodd" clip-rule="evenodd" d="M529.137 140H614L612.863 154H528L529.137 140Z" fill="white" stroke="#111B2A"/>
<path id="Rectangle Copy 12_2" fill-rule="evenodd" clip-rule="evenodd" d="M526.137 176H611L609.863 190H525L526.137 176Z" fill="white" stroke="#111B2A"/>
<path id="Rectangle Copy 13_2" fill-rule="evenodd" clip-rule="evenodd" d="M523.137 212H608L606.863 226H522L523.137 212Z" fill="white" stroke="#111B2A"/>
</g>
<g id="deal icon copy">
<g id="Group 39_2">
<path id="Oval_6" fill-rule="evenodd" clip-rule="evenodd" d="M557.77 113.714C577.115 113.714 594.322 98.4122 596.203 79.5368C598.083 60.6613 583.925 45.3597 564.579 45.3597C545.234 45.3597 528.027 60.6613 526.146 79.5368C524.266 98.4122 538.424 113.714 557.77 113.714Z" fill="#629DF4"/>
<path id="Oval Copy 12_2" d="M591.234 79.4872C589.619 95.6894 574.831 108.851 558.204 108.851C541.613 108.851 529.505 95.7472 531.115 79.5864C532.73 63.3841 547.518 50.2228 564.145 50.2228C580.736 50.2228 592.844 63.3264 591.234 79.4872Z" stroke="white"/>
<path id="Path 104_2" fill-rule="evenodd" clip-rule="evenodd" d="M546.437 68.1963L539.646 74.5213L556.538 91.7811C558.167 93.4455 561.014 93.37 562.888 91.6128L610.644 46.838L604.735 40.8499L560.377 82.4393L546.437 68.1963Z" fill="#FFB16D"/>
</g>
</g>
</g>
</svg>
