<?xml version="1.0" encoding="utf-8"?>
<!-- Generator: Adobe Illustrator 23.0.0, SVG Export Plug-In . SVG Version: 6.00 Build 0)  -->
<svg version="1.1" id="Layer_1" xmlns="http://www.w3.org/2000/svg" xmlns:xlink="http://www.w3.org/1999/xlink" x="0px" y="0px"
	 viewBox="148 148 200 200" style="enable-background:new 148 148 200 200;" xml:space="preserve">
<style type="text/css">
	.st0{fill:#F0BC5E;}
</style>
<path class="st0" d="M296.39,289.94h32.26V348h-32.26V289.94z"/>
<path class="st0" d="M167.35,289.94h32.26V348h-32.26V289.94z"/>
<path d="M196.39,218.97c1.88,0,3.74,0.27,5.53,0.8l0.73-2.47c0.83-0.46,1.62-0.98,2.34-1.63l-1.39-1.55l0.16-0.54
	c-0.26-0.08-0.54-0.11-0.8-0.18l-2.27-2.53c-1.18,1.06-2.71,1.64-4.3,1.64c-3.56,0-6.45-2.89-6.45-6.45c0-3.56,2.89-6.45,6.45-6.45
	c1.59,0,3.12,0.58,4.3,1.64l4.3-4.81c-2.37-2.12-5.42-3.29-8.6-3.29c-7.12,0-12.9,5.79-12.9,12.9c0,3.21,1.22,6.11,3.17,8.37
	c-7.16,2.93-12.72,8.99-14.97,16.47c-2.72-4.42-4.33-9.61-4.33-15.17c0-16.01,13.02-29.03,29.03-29.03c1.95,0,3.91,0.2,5.81,0.58
	l1.28-6.33c-2.33-0.47-4.71-0.71-7.09-0.71c-19.56,0-35.48,15.92-35.48,35.48c0,19.56,15.92,35.48,35.48,35.48
	c2.38,0,4.76-0.24,7.09-0.71l-1.28-6.33c-1.91,0.39-3.86,0.58-5.81,0.58c-7.42,0-14.17-2.82-19.31-7.41
	C177.58,227.14,186.04,218.97,196.39,218.97z"/>
<path d="M173.81,322.19h-6.45v-25.81H148V167.35h54.84v6.45h-48.39v116.13h19.35V322.19z"/>
<path d="M180.26,289.94h6.45V348h-6.45V289.94z"/>
<path d="M160.9,264.13h32.26v6.45H160.9V264.13z"/>
<path d="M160.9,277.03h32.26v6.45H160.9V277.03z"/>
<path d="M335.1,215.74c0-19.56-15.92-35.48-35.48-35.48c-2.38,0-4.76,0.24-7.09,0.71l1.28,6.33c1.91-0.39,3.86-0.58,5.81-0.58
	c16.01,0,29.03,13.02,29.03,29.03c0,5.56-1.6,10.75-4.32,15.17c-2.25-7.48-7.81-13.54-14.97-16.47c1.95-2.26,3.16-5.16,3.16-8.37
	c0-7.12-5.79-12.9-12.9-12.9c-3.18,0-6.24,1.16-8.6,3.29l4.3,4.81c1.18-1.06,2.71-1.64,4.3-1.64c3.56,0,6.45,2.89,6.45,6.45
	c0,3.56-2.89,6.45-6.45,6.45c-1.59,0-3.12-0.58-4.3-1.64l-2.27,2.53c-0.26,0.07-0.54,0.1-0.8,0.18l0.16,0.54l-1.39,1.55
	c0.72,0.64,1.51,1.16,2.34,1.63l0.73,2.47c1.79-0.53,3.65-0.8,5.53-0.8c10.35,0,18.8,8.17,19.31,18.4
	c-5.13,4.59-11.89,7.41-19.31,7.41c-1.95,0-3.91-0.2-5.81-0.58l-1.28,6.33c2.33,0.47,4.71,0.71,7.09,0.71
	C319.18,251.23,335.1,235.31,335.1,215.74z"/>
<path d="M293.16,167.35v6.45h48.39v116.13h-19.35v32.26h6.45v-25.81H348V167.35H293.16z"/>
<path d="M302.84,264.13h32.26v6.45h-32.26V264.13z"/>
<path d="M302.84,277.03h32.26v6.45h-32.26V277.03z"/>
<path class="st0" d="M199.61,148v129.03h61.33c0.12-0.13,0.23-0.27,0.35-0.39l2.84-2.84v-12.9l-7.67-7.67c-1.28-1.28-2-3.02-2-4.84
	c0-3.78,3.07-6.84,6.84-6.84h0.43c1.55,0,3.06,0.53,4.27,1.5l11.83,9.47c1.53,1.22,2.42,3.08,2.42,5.04v19.48h16.13V148H199.61z
	 M248,228.65c-17.82,0-32.26-14.44-32.26-32.26s14.44-32.26,32.26-32.26s32.26,14.44,32.26,32.26S265.82,228.65,248,228.65z"/>
<path d="M248,160.9c-19.56,0-35.48,15.92-35.48,35.48s15.92,35.48,35.48,35.48s35.48-15.92,35.48-35.48S267.56,160.9,248,160.9z
	 M248,167.35c16.01,0,29.03,13.02,29.03,29.03c0,5.56-1.6,10.75-4.32,15.17c-2.25-7.48-7.81-13.54-14.97-16.47
	c1.95-2.26,3.16-5.16,3.16-8.37c0-7.12-5.79-12.9-12.9-12.9s-12.9,5.79-12.9,12.9c0,3.21,1.22,6.11,3.17,8.37
	c-7.16,2.93-12.72,8.99-14.97,16.47c-2.72-4.42-4.33-9.61-4.33-15.17C218.97,180.38,231.99,167.35,248,167.35z M241.55,186.71
	c0-3.56,2.89-6.45,6.45-6.45c3.56,0,6.45,2.89,6.45,6.45c0,3.56-2.89,6.45-6.45,6.45C244.44,193.16,241.55,190.27,241.55,186.71z
	 M228.69,218.01c0.5-10.23,8.96-18.4,19.31-18.4c10.35,0,18.8,8.17,19.31,18.4c-5.13,4.59-11.89,7.41-19.31,7.41
	C240.58,225.42,233.83,222.6,228.69,218.01z"/>
<path d="M167.35,328.65h6.45v6.45h-6.45V328.65z"/>
<path d="M167.35,341.55h6.45V348h-6.45V341.55z"/>
<path d="M193.16,315.74h6.45v6.45h-6.45V315.74z"/>
<path d="M193.16,328.65h6.45V348h-6.45V328.65z"/>
<path d="M212.52,244.77h6.45v6.45h-6.45V244.77z"/>
<path d="M225.42,244.77h19.35v6.45h-19.35V244.77z"/>
<path d="M212.52,257.68h32.26v6.45h-32.26V257.68z"/>
<path d="M322.19,328.65h6.45v6.45h-6.45V328.65z"/>
<path d="M322.19,341.55h6.45V348h-6.45V341.55z"/>
<path d="M309.29,289.94h6.45V348h-6.45V289.94z"/>
<path d="M296.39,315.74h6.45v6.45h-6.45V315.74z"/>
<path d="M296.39,328.65h6.45V348h-6.45V328.65z"/>
<path d="M225.42,277.03h6.45v16.13h-6.45V277.03z"/>
<path d="M238.32,277.03h6.45v16.13h-6.45V277.03z"/>
<path d="M283.48,289.94v-32.38c0-2.95-1.32-5.71-3.63-7.56l-11.83-9.47c-1.78-1.42-4.01-2.2-6.29-2.2h-0.43
	c-5.55,0-10.07,4.52-10.07,10.07c0,2.65,1.07,5.25,2.95,7.12l6.73,6.73v10.23l-1.89,1.89c-5.02,5.02-7.79,11.7-7.79,18.8h6.45
	c0-5.38,2.09-10.44,5.9-14.24l3.78-3.78v-15.57l-8.62-8.62c-0.67-0.67-1.06-1.61-1.06-2.56c0-1.99,1.62-3.62,3.62-3.62h0.43
	c0.82,0,1.62,0.28,2.26,0.79l11.83,9.46c0.77,0.62,1.21,1.53,1.21,2.52v43.14c0,0.69-0.23,1.38-0.65,1.94l-7.09,9.46
	c-1.25,1.66-1.94,3.72-1.94,5.81v10.75h-38.71v-10.75c0-2.08-0.69-4.15-1.94-5.81l-7.09-9.46c-0.42-0.55-0.65-1.24-0.65-1.94v-23.65
	h-6.45v12.9h-19.35v19.35h6.45v-12.9h12.9v4.3c0,2.08,0.69,4.15,1.94,5.81l7.09,9.47c0.42,0.56,0.65,1.24,0.65,1.94v10.75h-6.45V348
	h64.52v-19.35h-6.45v-10.75c0-0.69,0.23-1.38,0.65-1.94l7.09-9.46c1.25-1.66,1.94-3.72,1.94-5.81v-4.3h12.9v12.9h6.45v-19.35H283.48
	z M273.81,341.55h-51.61v-6.45h51.61V341.55z"/>
</svg>
