<svg id="Layer_1" data-name="Layer 1" xmlns="http://www.w3.org/2000/svg" viewBox="0 0 100.37 100"><defs><style>.cls-1{fill:#f0bc5e;}</style></defs><polygon class="cls-1" points="41.84 75.61 41.84 90.07 56.31 90.07 56.31 75.63 41.84 75.61"/><polygon class="cls-1" points="59.64 75.61 59.64 90.07 74.12 90.07 74.12 75.63 59.64 75.61"/><polygon class="cls-1" points="77.45 75.61 77.45 90.07 91.92 90.07 91.92 75.63 77.45 75.61"/><polygon class="cls-1" points="57.97 17.04 57.98 41.66 66.89 41.66 74.66 38.73 74.71 17.08 57.97 17.04"/><polygon class="cls-1" points="25.7 19.27 25.7 54.71 42.44 54.71 42.44 19.32 25.7 19.27"/><path d="M0,100V90.14H3.21V55.06H16V24.42c-3.18,0-6.32,0-9.46,0a5.45,5.45,0,0,1-3.2-.95C2,22.56.53,21.45.15,19.83c-.5-2.09-.68-4.3,1.19-6A8.5,8.5,0,0,0,2.7,12.43c.54-.78,1.34-.79,2.09-.93A9,9,0,0,1,8.83,5a9.34,9.34,0,0,1,8.81-1.12c1.23.38,2.46.76,3.56-.38.22-.22.63-.24,1-.39V0H77.8V9.38h6V35.45l2.48.09a8.5,8.5,0,0,1,7.11,3.93A10,10,0,0,1,95,43c.15.66.38.76.92,1a9,9,0,0,1,2.34,1.74c2.57,2.51,2.49,5.92.08,8.56a7.21,7.21,0,0,1-6,2.42c-2.69-.09-5.38,0-8.07,0-.07,0-.15.08-.3.17v5.91h12.7V90h3a2.41,2.41,0,0,1,.31.29.54.54,0,0,1,.09.24V100Zm66.6-58.26a16.49,16.49,0,0,0,.82-1.63,5.56,5.56,0,0,1,2.08-2.57c1-.78,2.19-1.84,3.34-1.89,2.58-.13,5.31-.77,7.7,1V12.86H51.74V62.7h28.8v-6c-4,0-8,0-12,0a7.33,7.33,0,0,1-4-1.12c-3.17-1.84-4.29-5.15-2.69-8.31.34-.66.66-1.34,1.13-2.28h-8V41.74ZM45,66.21c0,.61,0,1.14,0,1.68.08,1.19.46,1.55,1.67,1.59.56,0,1.11,0,1.67,0H87.23v3.23H41.63V58.47H6.68V89.94H12.8V68h3.37V90h6V67.89h3.92V90H32.2V78.82c0-3.67,0-7.34,0-10.9h3.35V90H93.34V73c-3.37-.25-3.37-.25-3.07-3.51h3V66.21ZM19.5,12.79V55h1.17L24,55c2,0,2,0,3,0,5.92.14,12,0,18.06.21v7.51h3.16V12.79ZM91.74,46.36c0-4,0-4-2.16-6a6.1,6.1,0,0,0-7.34-.52c-.93.73-1.57,1-2.56.2-.43-.36-1.17-.35-1.65-.68-2-1.36-6.3.21-7.46,2.27a8.53,8.53,0,0,0-1.1,5.06,8.08,8.08,0,0,0-1.59,0c-1.57.35-3.62,2.24-3.36,3.32a3.88,3.88,0,0,0,2.68,3,7.49,7.49,0,0,0,1.81.33c7.69,0,15.38,0,23.07,0a5.65,5.65,0,0,0,2.32-.46c.64-.27,1.42-.32,1.76-1a3.85,3.85,0,0,0,.53-2,6.37,6.37,0,0,0-.81-2.14c-.28-.59-.89-.48-1.42-.58A25.13,25.13,0,0,1,91.74,46.36Zm5,47.71H3.32v2.58H96.69ZM19.35,8.34c-3.86-2.47-5.79-2-7.5-1.17-3,1.4-4,3.9-3.52,7.23a7.76,7.76,0,0,0-1.47,0c-.49.11-1,.53-1.43.5-1.24-.08-1.38.85-1.82,1.61A2,2,0,0,0,3.66,19a6.13,6.13,0,0,0,3.28,2.06c3,0,6,0,9.15,0V9.37h6.15L22,6.93Zm28.94-5H26.13V9.3H48.29Zm25.55,6V3.27H62.67c-3.67,0-7.34,0-10.9,0V9.35Z" transform="translate(0.19)"/><path d="M26,64.43H22.28V61.25c1.12-.27,2.37,0,3.71-.17Z" transform="translate(0.19)"/><path d="M12.82,61.19H16v3.14H12.82Z" transform="translate(0.19)"/><path d="M35.57,64.48H32.35V61.24h3.08A24.25,24.25,0,0,1,35.57,64.48Z" transform="translate(0.19)"/><path d="M22.33,41.73h22.6V45C37,45,30,45,22.33,45Z" transform="translate(0.19)"/><path d="M22.28,32.07V28.91H44.89V32" transform="translate(0.19)"/><path d="M22.28,16.11H44.9v3.16H22.28Z" transform="translate(0.19)"/><path d="M29.33,26H25.62V22.33h3.71Z" transform="translate(0.19)"/><path d="M38.37,26v-3.7h3.74a30.8,30.8,0,0,1,.14,3.7Z" transform="translate(0.19)"/><path d="M35.49,22.28V26H32.34V22.28Z" transform="translate(0.19)"/><path d="M32.3,35h3.15v3.75c-.41,0-.92.07-1.44.09s-1.08,0-1.71,0Z" transform="translate(0.19)"/><path d="M29.37,48.43v3.16H25.66V48.43Z" transform="translate(0.19)"/><path d="M38.42,48.39h3.7v3.18c-1.12.27-2.37,0-3.7.17Z" transform="translate(0.19)"/><path d="M32.29,48.39h3.16v3.15H32.29Z" transform="translate(0.19)"/><path d="M55.07,32.11V29h22.7v3.12C70,32,63,32,55.07,32.11Z" transform="translate(0.19)"/><path d="M55.06,19.32V16.16H77.68v3.16Z" transform="translate(0.19)"/><path d="M57.89,22.24H61.6v3.7H57.89Z" transform="translate(0.19)"/><path d="M70.64,26v-3.7h3.74c.27,1.11,0,2.37.17,3.7Z" transform="translate(0.19)"/><path d="M61.6,35v3.75H57.8c0-.73,0-1.54,0-2.34A1.28,1.28,0,0,1,59.08,35,23.36,23.36,0,0,1,61.6,35Z" transform="translate(0.19)"/><path d="M67.73,38.8h-3.2V35.11h3.2Z" transform="translate(0.19)"/><path d="M64.56,22.24h3.16V26H64.56Z" transform="translate(0.19)"/><polygon points="25.68 35.03 29.56 34.99 29.6 38.78 25.71 38.78 25.68 35.03"/><polygon points="38.68 35.03 42.56 34.99 42.6 38.78 38.71 38.78 38.68 35.03"/><polygon points="57.98 34.96 60.1 34.97 57.98 36.64 57.98 34.96"/></svg>